<?xml version="1.0" encoding="utf-8"?>
<!-- Generator: Adobe Illustrator 17.1.0, SVG Export Plug-In . SVG Version: 6.00 Build 0)  -->
<!DOCTYPE svg PUBLIC "-//W3C//DTD SVG 1.1//EN" "http://www.w3.org/Graphics/SVG/1.1/DTD/svg11.dtd">
<svg version="1.1" id="Background_copy_xA0_Image_1_"
	 xmlns="http://www.w3.org/2000/svg" xmlns:xlink="http://www.w3.org/1999/xlink" x="0px" y="0px" viewBox="0 0 141.905 132.532"
	 enable-background="new 0 0 141.905 132.532" xml:space="preserve">
<g id="XMLID_3_">
	<g>
		<path fill="#AED136" d="M138.233,53.913c0.042,0.2,0.074,0.232,0.074,0.339c-2.336-0.283-2.471-0.269-4.603-0.687
			C110.716-8.205,39.426,2.942,23.983,37.89c23.756-0.037,41.683-9.637,55.732-23.105C71.472,36.613,36.7,53.932,5.871,49.037
			C15.313,23.456,35.506,7.684,66.479,4.103c3.191-0.353,6.479-0.344,9.753,0C109.592,7.145,128.977,25.304,138.233,53.913z"/>
	</g>
	<g>
	</g>
</g>
<g id="XMLID_1_">
	<g>
		<path fill="#2CC2DD" d="M112.263,107.759c11.04-9.581,16.362-24.188,17.843-42.003c-22.553-1.249-36.671-8.806-52.945-18.461
			c-7.254,4.561-17.193,9.512-28.214,11.146c-13.427,1.988-28.052,0.516-41.45-2.438C6.632,75.43,13.172,92.02,23.124,102.632
			c10.05,10.719,24.564,18.995,43.011,20.505C85.154,124.692,101.53,117.071,112.263,107.759z M139.511,62.621
			c0,2.787,0.056,4.356,0,8.36c-1.509,19.738-9.354,31.488-19.854,41.102c-10.431,9.549-24.759,16.102-42.495,18.113
			c-5.225,0.348-6.502,0.581-10.798,0c-18.995-1.732-33.62-9.447-44.237-19.854C11.56,99.989,3.595,85.717,3.316,65.408
			c0-0.348,0-0.697,0-1.045c0.348-6.038,0.348-5.805,1.161-10.975c22.516,3.613,48.25-1.407,60.492-10.97
			c1.728-1.351,2.378-1.913,5.225-4.18c18.879,10.844,42.621,16.826,68.968,20.203C139.385,59.728,139.395,60.183,139.511,62.621z"
			/>
	</g>
	<g>
	</g>
</g>
<g id="XMLID_2_">
	<g>
		<path fill="#2CC2DD" d="M96.783,80.037c-3.715,0.697-5.355,0.423-8.011,0.348c-5.332-0.153-8.931-0.706-14.95-2.155
			c-2.29-0.548-4.342-1.338-7.798-2.675c-2.053,1.37-3.335,1.969-5.466,3.088c-6.79,3.562-18.401,6.562-24.731,7.663
			c-5.457,0.841-9.753,0.464-13.585-0.348c15.591-2.712,29.143-9.173,37.619-19.854c0.158-0.181,0.181-0.093,0.348,0
			C71.049,72.1,83.096,76.888,96.783,80.037z"/>
	</g>
	<g>
	</g>
</g>
</svg>
