<?xml version="1.0" encoding="utf-8"?>
<!-- Generator: Adobe Illustrator 17.1.0, SVG Export Plug-In . SVG Version: 6.00 Build 0)  -->
<!DOCTYPE svg PUBLIC "-//W3C//DTD SVG 1.1//EN" "http://www.w3.org/Graphics/SVG/1.1/DTD/svg11.dtd">
<svg version="1.1" id="Layer_1" xmlns="http://www.w3.org/2000/svg" xmlns:xlink="http://www.w3.org/1999/xlink" x="0px" y="0px"
	 viewBox="0.6 14.9 71.6 42.1" enable-background="new 0.6 14.9 71.6 42.1" xml:space="preserve">
<g id="Termite">
	<g>
		<path fill="#AF8A62" d="M23.2,14.9c0.2,0.2,0.1,0.4,0,0.5c-0.1,0.2-0.2,0.4-0.3,0.6c-0.2,0.3-0.3,0.6-0.5,0.8
			c-0.1,0.1-0.2,0.2-0.2,0.3c-0.1,0.2-0.2,0.3-0.3,0.4c-0.1,0.1-0.1,0.1-0.1,0.2c0,0.2-0.2,0.4-0.3,0.6c-0.1,0.1-0.1,0.1-0.1,0.2
			c0,0.3-0.1,0.5-0.3,0.7c0,0-0.1,0.1-0.1,0.2c0,0.3-0.1,0.6-0.3,0.8c0,0-0.1,0.1-0.1,0.2c0,0.3-0.1,0.6-0.3,0.8
			c0,0-0.1,0.1-0.1,0.1c0,0.3-0.1,0.6-0.3,0.8c0,0.1-0.1,0.1-0.1,0.2c0,0.2,0,0.4-0.1,0.5c-0.1,0.1-0.1,0.2-0.1,0.4
			c0,0.1,0,0.1,0,0.2c0,0.1,0,0.2,0.1,0.2c0.1,0,0.1,0.1,0.2,0.2c0.1,0.3,0.1,0.6,0,0.9c0,0.1-0.1,0.2-0.2,0.2
			c-0.1,0-0.1,0.1-0.1,0.1c0.1,0.8,0.2,1.6,0.2,2.4c0.1,0.9,0.2,1.7,0.2,2.6c0,0.7-0.1,1.4-0.3,2c-0.3,1.1-0.9,1.9-2,2.3
			c0,0,0,0,0,0c0.1,0.1,0.1,0.1,0.2,0.1c0.3,0.1,0.5,0.3,0.7,0.4c0.1,0.1,0.1,0.1,0.2,0c1-0.5,2-1,3.1-1.3c0.3-0.1,0.6-0.2,0.9-0.2
			c0.1,0,0.1,0,0.2,0c0.1,0,0.2,0,0.2-0.1c0.2-0.7,0.4-1.3,0.5-2c0.1-0.6,0.3-1.2,0.6-1.8c0.1-0.3,0.3-0.5,0.6-0.7
			c0.1,0,0.1-0.1,0.1-0.2c0.1-0.3,0.1-0.5,0.3-0.7c0.1-0.2,0.3-0.3,0.5-0.3c0.1,0,0.1,0,0.2-0.1c0.3-0.2,0.4-0.5,0.4-0.9
			c0-0.2,0-0.4,0-0.6c0-0.1,0-0.1,0.1-0.2c0.1,0,0.1,0,0.2,0.1c0.3,0.7,0.7,1.3,1.3,1.7c0,0,0,0,0.1,0c0,0,0,0.1,0,0.1
			c0,0.1-0.1,0-0.1,0c-0.2-0.1-0.4-0.2-0.7-0.2c-0.2,0-0.5,0-0.7,0.2c-0.1,0-0.1,0.1-0.1,0.2c0.1,0.2,0,0.4-0.1,0.5
			c-0.1,0.1-0.3,0.2-0.5,0.3C26,29,26,29,26,29.1c0.3,0.2,0.3,0.4,0.1,0.7c-0.2,0.3-0.5,0.6-0.7,0.9c-0.5,0.6-0.7,1.2-0.8,2
			c0,0.4-0.1,0.7-0.3,1.1c-0.1,0.1-0.2,0.3-0.3,0.4c-0.4,0.2-0.7,0.5-1,0.7c-0.8,0.5-1.6,0.8-2.5,1.2c-0.4,0.1-0.7,0.3-1.1,0.4
			c-0.1,0-0.1,0-0.1,0.1c-0.2,0.4-0.5,0.7-0.9,0.9c-0.2,0.1-0.2,0.1,0,0.2c0.2,0.2,0.5,0.2,0.7,0.2c0.4,0,0.7,0,1.1,0
			c0.5,0,1,0,1.5,0.1c0.5,0.1,0.9,0.3,1.3,0.6c0.6,0.5,1.1,1.1,1.5,1.8c0.3,0.5,0.6,1.1,0.9,1.6c0.2,0.4,0.5,0.7,0.8,1
			c0.1,0.1,0.1,0.2,0.2,0.3c0.1,0.1,0.1,0.2,0,0.3c0,0.1,0,0.1,0.1,0.2c0.1,0.1,0.2,0.1,0.3,0.2c0.1,0.1,0.3,0.1,0.4,0.2
			c0.1,0.1,0.2,0.2,0.2,0.3c0,0.1,0,0.1,0.1,0.1c0.8,0.3,1.4,0.8,1.7,1.6c0,0.1,0.1,0.1,0,0.2c-0.1,0-0.1,0-0.2,0
			c-0.1-0.1-0.2-0.2-0.4-0.3c-0.3-0.2-0.6-0.1-0.7,0.2c-0.1,0.2-0.2,0.5-0.2,0.8c0,0,0,0.1,0,0.1c0,0.1-0.1,0.1-0.1,0.1
			c-0.1,0-0.1-0.1-0.1-0.1c0-0.2,0-0.4,0.1-0.7c0-0.4,0-0.8-0.2-1.1c0-0.1-0.1-0.1-0.1-0.2c-0.1-0.1-0.1-0.1-0.2-0.1
			c-0.1,0.1-0.2,0-0.3,0c-0.2-0.1-0.3-0.2-0.5-0.3c-0.2-0.2-0.4-0.4-0.6-0.5c-0.2-0.1-0.2-0.3-0.3-0.4c-0.1-0.4-0.3-0.8-0.4-1.2
			c-0.4-1.1-0.9-2.1-1.7-2.9c-0.2-0.2-0.4-0.4-0.6-0.5c-0.1-0.1-0.2-0.1-0.3-0.1c-0.4,0.1-0.8,0.2-1.2,0.2c-0.7,0-1.4,0-2,0
			c-0.1,0-0.2,0-0.3,0.1c-0.2,0.3-0.5,0.4-0.7,0.6c-0.1,0-0.1,0.1-0.2,0.1c0.2,0.1,0.3,0.1,0.4,0.1c0.4,0.1,0.7,0.3,1,0.6
			c0.2,0.2,0.3,0.3,0.4,0.6c0,0.1,0.1,0.1,0.1,0.2c0.4,0.3,0.8,0.5,1.2,0.7c0.5,0.3,1,0.5,1.6,0.8c0.6,0.2,0.9,0.7,1,1.3
			c0.1,0.5,0.2,1,0.3,1.5c0.2,0.7,0.5,1.4,0.8,2c0.1,0.3,0.3,0.6,0.4,0.9c0.1,0.2,0.1,0.3,0,0.5c-0.1,0,0,0.1,0,0.2
			c0.1,0.2,0.2,0.3,0.3,0.4c0.1,0.1,0.2,0.3,0.2,0.4c0,0,0,0,0,0.1c-0.1,0.2,0,0.2,0.1,0.3c0.5,0.4,0.8,1,0.8,1.7c0,0.1,0,0.2,0,0.3
			c0,0.1,0,0.1-0.1,0.2c-0.1,0-0.1,0-0.2-0.1c-0.1-0.2-0.1-0.3-0.2-0.5c0,0,0,0,0,0c-0.2-0.4-0.4-0.5-0.8-0.1
			c-0.1,0.1-0.2,0.3-0.3,0.4c0,0,0,0.1-0.1,0.1c-0.1,0-0.1,0-0.1-0.1c0,0,0-0.1,0-0.1c0.2-0.3,0.4-0.7,0.5-1.1c0-0.1,0-0.3,0-0.4
			c0-0.1-0.1-0.2-0.3-0.2c-0.2,0-0.3-0.1-0.3-0.3c-0.1-0.2-0.2-0.5-0.3-0.7c0-0.1-0.1-0.2-0.2-0.1c-0.1,0-0.2,0-0.3-0.2
			c0-0.2-0.1-0.4-0.1-0.5c0-0.5,0-1-0.1-1.6c-0.1-0.8-0.4-1.6-0.8-2.3c-0.2-0.4-0.5-0.7-0.8-1c0,0-0.1-0.1-0.2-0.1
			c-0.4,0-0.8-0.2-1.1-0.3c-0.5-0.2-0.9-0.4-1.4-0.7c-0.2-0.1-0.2,0.1-0.3,0.1c-0.1,0.1,0,0.1,0,0.2c0.3,0.4,0.6,0.9,0.7,1.4
			c0,0.1,0,0.1,0.1,0.2c0.4,0.6,0.6,1.2,0.6,1.9c0,0.1,0,0.1,0,0.2c0.3,0.7,0.4,1.3,0.4,2.1c0,0.4,0,0.7,0,1.1
			c0.1,0.8-0.1,1.5-0.4,2.2c0,0.1-0.1,0.2,0,0.2c0,0.4,0,0.7-0.1,1.1c-0.1,0.3-0.2,0.6-0.5,0.8c-0.4,0.4-0.7,0.8-1,1.3
			c-0.3,0.4-0.6,0.8-1,1.1c-0.7,0.6-1.5,0.6-2.2,0c-0.6-0.4-1-1-1.4-1.5c-0.1-0.2-0.3-0.3-0.5-0.5c-0.6-0.5-0.9-1.1-0.9-1.8
			c0-0.2,0-0.3-0.1-0.5c-0.5-0.8-0.7-1.6-0.6-2.4c0-0.3,0-0.5-0.1-0.8c-0.1-0.7-0.1-1.4,0.2-2c0-0.1,0-0.1,0-0.2
			c0-0.7,0.1-1.3,0.4-1.9c0-0.1,0.1-0.2,0.1-0.3c0.1-0.5,0.2-0.9,0.5-1.4c0.1-0.2,0.1-0.3-0.1-0.4c-0.1,0-0.1,0-0.1,0
			c-0.4,0.3-0.9,0.6-1.3,0.8c-0.4,0.2-0.7,0.3-1.1,0.4c-0.1,0-0.1,0-0.2,0.1c-0.5,0.6-0.8,1.3-1,2.1c-0.1,0.4-0.2,0.9-0.2,1.3
			c0,0.6,0,1.1,0.1,1.7c0,0.2,0,0.3,0,0.5C9.3,50,9.2,50.1,9,50c-0.1,0-0.1,0-0.1,0.1c-0.1,0.3-0.1,0.6-0.3,0.8
			c-0.1,0.2-0.2,0.3-0.4,0.3c-0.1,0-0.1,0-0.1,0.1c-0.1,0.2-0.1,0.3,0,0.5c0.1,0.3,0.3,0.6,0.5,0.9c0,0.1,0.1,0.1,0.1,0.1
			c0,0,0.1,0.1,0,0.1c-0.1,0-0.1,0.1-0.2,0c-0.2-0.2-0.3-0.4-0.6-0.6c-0.2-0.2-0.4-0.1-0.6,0.1c-0.1,0.2-0.2,0.4-0.2,0.6
			c0,0,0,0.1,0,0.1c0,0.1-0.1,0.1-0.1,0.1c-0.1,0-0.1,0-0.1-0.1c-0.1-0.8,0.1-1.6,0.7-2.2c0.1-0.1,0.1-0.1,0.1-0.3
			c-0.1-0.1,0-0.3,0-0.4C7.8,50.3,7.9,50.2,8,50c0.1-0.1,0.1-0.2,0-0.4c-0.1-0.1,0-0.2,0-0.3c0-0.3,0.2-0.5,0.3-0.8
			c0.3-0.6,0.5-1.3,0.6-2C9,46,9,45.5,9.1,44.9c0-0.2,0.1-0.4,0.1-0.6c0.1-0.4,0.4-0.7,0.8-0.9c0.7-0.4,1.3-0.8,1.9-1.2
			c0.3-0.2,0.6-0.4,0.8-0.6c0,0,0.1-0.1,0.1-0.1c0.2-0.5,0.6-0.8,1-1.1c0.2-0.1,0.4-0.2,0.7-0.3c-0.2-0.1-0.4-0.2-0.5-0.3
			c-0.2-0.1-0.3-0.2-0.5-0.4c-0.1-0.1-0.1-0.1-0.2-0.1c-0.9,0.1-1.8,0.2-2.6,0.2c-0.2,0-0.5,0-0.7-0.1c-0.1,0-0.1,0-0.2,0.1
			c-0.8,0.8-1.4,1.7-1.8,2.8c-0.2,0.6-0.3,1.2-0.5,1.7c0,0.1-0.1,0.3-0.1,0.4C7.3,44.8,7.2,44.9,7,45C7,45,7,45,6.9,45.1
			c-0.2,0.2-0.4,0.4-0.6,0.6c-0.2,0.1-0.3,0.2-0.6,0.1c-0.1,0-0.1,0-0.2,0.1c-0.1,0.1-0.1,0.3-0.2,0.4c-0.1,0.3,0,0.7,0,1
			c0,0.2,0.1,0.4,0.1,0.6c0,0.1,0.1,0.2,0,0.2c-0.1,0-0.2-0.1-0.2-0.2c-0.1-0.3-0.1-0.5-0.3-0.8c-0.2-0.3-0.4-0.3-0.7-0.1
			c-0.1,0.1-0.2,0.2-0.3,0.2C4,47.2,4,47.3,3.9,47.3c0,0.1-0.1,0-0.2,0c-0.1,0,0-0.1,0-0.1c0.3-0.8,0.8-1.4,1.6-1.8
			c0.1,0,0.1-0.1,0.1-0.2c0-0.2,0.1-0.3,0.2-0.3c0.1-0.1,0.2-0.1,0.3-0.2c0.1-0.1,0.2-0.1,0.3-0.2c0,0,0.1-0.1,0-0.1
			c-0.1-0.2,0-0.3,0-0.4c0.1-0.1,0.2-0.3,0.3-0.4c0.4-0.5,0.6-1,0.9-1.5c0.4-0.8,0.7-1.6,1.3-2.4c0.6-0.8,1.3-1.3,2.2-1.4
			c0.6-0.1,1.3-0.1,1.9-0.2c0.2,0,0.4,0,0.6,0c0.1,0,0.1,0,0.2-0.1c0.1-0.1,0.2-0.2,0.4-0.3c0.1-0.1,0.1-0.1,0-0.1
			c-0.2-0.1-0.5-0.2-0.7-0.4c-0.1-0.1-0.3-0.2-0.3-0.4c-0.1-0.1-0.1-0.1-0.2-0.2c-0.6-0.1-1.1-0.3-1.7-0.5c-1-0.3-1.9-0.7-2.8-1.2
			C8.1,34.9,8,34.9,8,34.8c-0.3-0.2-0.5-0.5-0.6-0.8c-0.1-0.3-0.2-0.7-0.3-1c-0.1-0.5-0.4-1-0.8-1.4C6,31.2,5.7,31,5.4,30.7
			c-0.2-0.3-0.2-0.4,0-0.7c0.1-0.1,0-0.1,0-0.1c-0.1-0.1-0.3-0.1-0.4-0.2c-0.3-0.2-0.3-0.3-0.3-0.6c0-0.1,0-0.1-0.1-0.1
			c-0.4-0.2-0.7-0.2-1.1,0c-0.1,0.1-0.2,0.1-0.3,0.2c0-0.1,0-0.1,0-0.2c0.6-0.5,0.9-1.1,1.2-1.8c0-0.1,0-0.2,0.1-0.2
			c0.1,0,0.1,0.1,0.1,0.2c0,0.1,0,0.2,0,0.4c0,0.3,0.1,0.6,0.3,0.9c0.1,0.1,0.2,0.2,0.3,0.2c0.2,0,0.4,0.1,0.5,0.2
			C5.9,29,6,29.2,6,29.3c0.1,0.2,0.1,0.3,0.3,0.4c0,0,0,0,0.1,0.1c0.4,0.3,0.6,0.8,0.8,1.2C7.5,31.7,7.7,32.3,8,33
			c0.1,0.4,0.3,0.7,0.4,1.1c0,0,0,0.1,0.1,0.1c0.5-0.1,1,0.1,1.4,0.2c1,0.3,2.1,0.6,3.1,1c0.1,0,0.1,0,0.2,0
			c0.2-0.2,0.4-0.4,0.6-0.5c0.1-0.1,0.2-0.1,0.3-0.2c0,0,0,0-0.1,0c-1.1-0.4-1.8-1.1-2.2-2.2c-0.3-0.9-0.4-1.8-0.5-2.8
			c0-0.8,0-1.7,0.1-2.5c0-0.2,0-0.5,0-0.7c0-0.4,0-0.8,0.1-1.2c0,0,0-0.1,0-0.1c-0.2-0.2-0.3-0.5-0.2-0.8c0-0.2,0.1-0.4,0.2-0.5
			c0.2-0.2,0.2-0.4,0.1-0.6c-0.1-0.2-0.2-0.4-0.2-0.6c0-0.1,0-0.1-0.1-0.1c-0.2-0.2-0.3-0.5-0.3-0.8c0-0.1,0-0.2-0.1-0.2
			c-0.2-0.2-0.3-0.5-0.3-0.8c0-0.1,0-0.1-0.1-0.2c-0.2-0.2-0.3-0.4-0.3-0.7c0-0.1,0-0.1-0.1-0.2c-0.2-0.1-0.3-0.3-0.3-0.6
			c0-0.1-0.1-0.2-0.2-0.3c-0.1-0.1-0.2-0.1-0.2-0.2c-0.1-0.3-0.3-0.5-0.5-0.7c-0.1-0.2-0.2-0.4-0.4-0.6c-0.1-0.1-0.1-0.1-0.1-0.2
			C8.1,17,8,16.9,8,16.9c-0.2-0.1-0.3-0.3-0.4-0.5c0-0.1-0.1-0.1-0.1-0.2c-0.2-0.1-0.2-0.3-0.3-0.5c0-0.1,0-0.2,0.1-0.2
			c0.1,0,0.1,0,0.2,0c0.2,0.1,0.3,0.2,0.4,0.4c0,0.1,0.1,0.1,0.1,0.2c0.1,0.1,0.2,0.2,0.3,0.3c0.1,0.2,0.3,0.3,0.4,0.5
			c0.2,0.3,0.4,0.5,0.6,0.8c0,0.1,0.1,0.1,0.1,0.2c0,0.1,0.1,0.1,0.1,0.1c0.2,0.2,0.4,0.4,0.5,0.6c0,0,0,0.1,0.1,0.1
			c0.2,0.2,0.4,0.4,0.4,0.7c0,0.1,0,0.1,0.1,0.2c0.2,0.2,0.3,0.4,0.4,0.7c0,0.1,0,0.2,0.1,0.2c0.2,0.2,0.4,0.5,0.4,0.8
			c0,0.1,0,0.1,0.1,0.1c0.1,0.1,0.2,0.2,0.3,0.3c0.1,0.1,0.1,0.3,0.1,0.5c0,0.1,0,0.1,0.1,0.1c0.1,0,0.1,0,0.1-0.1
			c0.1-0.2,0.2-0.3,0.3-0.4c0,0,0.1-0.1,0-0.1c0-0.1-0.1-0.3-0.1-0.4c-0.2-0.9-0.4-1.7-0.4-2.7c0.1-0.6,0.3-1.2,0.7-1.8
			c0.4-0.5,0.8-0.8,1.4-1.1c0,0,0.1-0.1,0.1,0c0,0,0,0.1,0,0.1c-0.1,0.2-0.2,0.4-0.3,0.7c-0.1,0.3-0.3,0.6-0.3,0.9
			c0,0.2,0,0.4,0.1,0.5c0.1,0.2,0.3,0.3,0.5,0.3c0.1,0,0.1,0.1,0,0.1c-0.2,0.2-0.3,0.4-0.4,0.6c-0.1,0.2,0,0.4,0.1,0.6
			c0,0,0.1,0.1,0.1,0.1c0.1,0.1,0.1,0.1,0,0.2c-0.1,0.1-0.1,0.2-0.1,0.3c-0.1,0.3-0.1,0.7,0.2,0.9c0.1,0.1,0.4,0.1,0.4-0.1
			c0.1-0.2,0.1-0.4,0.2-0.6c0.1-0.2,0.1-0.4,0.3-0.5c0,0,0.1-0.1,0.1-0.1c0.1,0,0.1,0.1,0.1,0.1c0,0.1,0,0.3,0,0.4
			c0,0.2,0,0.5-0.1,0.7c0,0,0,0.1,0,0.1c0,0,0.1,0,0.1,0c0.1-0.1,0.1-0.2,0.2-0.2c0.2-0.3,0.5-0.3,0.8,0c0.1,0.1,0.2,0.2,0.4,0.3
			c0-0.1-0.1-0.2-0.1-0.3C16.1,20.6,16,20.3,16,20c0-0.1,0-0.2,0.1-0.2c0.1,0,0.1,0,0.2,0.1c0.1,0.1,0.2,0.3,0.3,0.4
			c0.1,0.2,0.2,0.4,0.3,0.5c0.1,0.1,0.3,0.2,0.4,0.1c0.2-0.2,0.3-0.5,0.2-0.8c-0.1-0.1-0.1-0.3-0.2-0.4c-0.1-0.1-0.1-0.1,0-0.2
			c0.4-0.2,0.3-0.6,0.1-0.8c-0.1-0.2-0.2-0.3-0.4-0.4c-0.1-0.1-0.1-0.1,0-0.1c0.1,0,0.1-0.1,0.2-0.1c0.3-0.2,0.5-0.5,0.4-0.9
			c-0.1-0.2-0.1-0.3-0.2-0.5c-0.2-0.3-0.4-0.6-0.6-1c0,0-0.1-0.1,0-0.1c0,0,0.1,0,0.1,0c0.2,0.1,0.3,0.2,0.5,0.3
			c0.6,0.3,1.1,0.7,1.4,1.3c0.3,0.6,0.4,1.2,0.5,1.9c0,0.8-0.1,1.6-0.3,2.4c0,0.1,0,0.1,0.1,0.2c0.1,0.1,0.3,0.2,0.4,0.3
			c0.1,0.1,0.1,0.1,0.2,0c0,0,0-0.1,0-0.1c0-0.3,0.1-0.6,0.3-0.8c0,0,0-0.1,0-0.1c0-0.3,0.1-0.6,0.3-0.8c0,0,0.1-0.1,0-0.1
			c0-0.3,0.1-0.6,0.3-0.9c0,0,0-0.1,0-0.1c0-0.3,0.1-0.5,0.4-0.7c0,0,0-0.1,0.1-0.1c0.1-0.3,0.2-0.5,0.4-0.7c0,0,0.1-0.1,0.1-0.1
			c0.1-0.2,0.2-0.4,0.3-0.6c0,0,0.1-0.1,0.1-0.1c0-0.2,0.2-0.4,0.3-0.5c0,0,0.1-0.1,0.1-0.1c0.1-0.2,0.2-0.4,0.3-0.5
			c0,0,0.1-0.1,0.1-0.1c0.1-0.2,0.2-0.4,0.4-0.5C23.1,14.9,23.2,14.9,23.2,14.9z"/>
	</g>
</g>
<g id="Layer_1_1_">
	<g>
		
			<linearGradient id="SVGID_1_" gradientUnits="userSpaceOnUse" x1="53.4465" y1="-69.6939" x2="53.4465" y2="50.991" gradientTransform="matrix(0.2862 0 0 -0.2862 0 35.1415)">
			<stop  offset="0" style="stop-color:#9F0C01"/>
			<stop  offset="1" style="stop-color:#C80E00"/>
		</linearGradient>
		<path fill="url(#SVGID_1_)" d="M0.6,38.6c0-0.5,0-1,0-1.5c0-0.1,0-0.1,0-0.2c0-0.5,0-1,0.1-1.5c0.1-1.4,0.3-2.7,0.7-4
			c0.6-2,1.4-3.9,2.7-5.6c1.3-1.7,2.9-3.1,4.9-4c1.7-0.8,3.6-1.1,5.5-1.2c0.3,0,0.6,0,0.9-0.1c0.6,0,1.2,0,1.7,0c0.3,0,0.6,0,1,0.1
			c1.1,0.1,2.2,0.2,3.2,0.4c2.6,0.5,4.6,1.8,6.1,4c0.9,1.3,1.5,2.8,1.9,4.3c0.1,0.2,0.1,0.5,0.2,0.7c-2.9,0.6-5.7,1.2-8.6,1.8
			c-0.1-0.4-0.3-0.7-0.4-1c-0.5-1.2-1.4-2.1-2.6-2.5c-0.8-0.3-1.7-0.4-2.6-0.3c-1,0.1-2,0.4-2.8,1c-1.1,0.8-1.8,1.9-2.2,3.1
			c-0.5,1.3-0.7,2.7-0.8,4.1c-0.1,1.8-0.1,3.6,0.2,5.4c0.2,1,0.4,2,0.9,2.9c0.8,1.5,1.9,2.6,3.6,3.1c1.6,0.4,3.2,0.3,4.8-0.3
			c1.1-0.4,2.1-1,3-1.7c0,0,0.1-0.1,0.1-0.2c0-1,0-1.9,0-2.9c0,0,0-0.1,0-0.1c-3.5,0-6.9,0-10.4,0c0-2.3,0-4.6,0-6.9
			c6.1,0,12.1,0,18.2,0c0,0.1,0,0.1,0,0.2c0,1.4,0,2.8,0,4.2c0,3.2,0,6.5,0,9.7c0,0.1,0,0.1-0.1,0.2c-1.2,1-2.5,1.9-3.8,2.7
			c-2.4,1.5-5,2.3-7.8,2.5c-1.2,0.1-2.4,0.1-3.5,0.1c-1.2-0.1-2.5-0.2-3.7-0.5c-1.7-0.4-3.3-1.1-4.6-2.2c-1.6-1.3-2.8-2.8-3.7-4.6
			c-1.3-2.6-1.9-5.3-2.1-8.2C0.7,39.2,0.7,38.9,0.6,38.6z"/>
		<path fill="none" d="M0.6,38.6c0,0.3,0,0.6,0.1,1c0.2,2.9,0.8,5.6,2.1,8.2c0.9,1.8,2.1,3.4,3.7,4.6c1.4,1.1,2.9,1.8,4.6,2.2
			c1.2,0.3,2.4,0.4,3.7,0.5c1.2,0.1,2.4,0,3.5-0.1c2.8-0.2,5.4-1.1,7.8-2.5c1.3-0.8,2.6-1.7,3.8-2.7c0.1-0.1,0.1-0.1,0.1-0.2
			c0-3.2,0-6.5,0-9.7c0-1.4,0-2.8,0-4.2c0-0.1,0-0.1,0-0.2c-6.1,0-12.1,0-18.2,0c0,2.3,0,4.6,0,6.9c3.5,0,6.9,0,10.4,0
			c0,0.1,0,0.1,0,0.1c0,1,0,1.9,0,2.9c0,0.1,0,0.1-0.1,0.2c-0.9,0.6-1.9,1.3-3,1.7c-1.6,0.6-3.2,0.7-4.8,0.3
			c-1.7-0.5-2.8-1.5-3.6-3.1c-0.5-0.9-0.7-1.9-0.9-2.9c-0.3-1.8-0.3-3.6-0.2-5.4c0.1-1.4,0.3-2.8,0.8-4.1c0.4-1.2,1.1-2.3,2.2-3.1
			c0.8-0.6,1.8-1,2.8-1c0.9-0.1,1.7,0,2.6,0.3c1.2,0.5,2.1,1.3,2.6,2.5c0.2,0.3,0.3,0.7,0.4,1c2.8-0.6,5.7-1.2,8.6-1.8
			c-0.1-0.2-0.1-0.5-0.2-0.7c-0.4-1.5-1-3-1.9-4.3c-1.5-2.2-3.5-3.5-6.1-4c-1.1-0.2-2.2-0.3-3.2-0.4c-0.3,0-0.6,0-1-0.1
			c4.3,0,8.6,0,12.9,0c0,11.5,0,23,0,34.6c-9.8,0-19.6,0-29.4,0C0.6,49.6,0.6,44.1,0.6,38.6z"/>
		<path fill="none" d="M15.4,20.5c-0.3,0-0.6,0-0.9,0.1c-1.9,0.1-3.7,0.4-5.5,1.2c-2,0.9-3.6,2.3-4.9,4c-1.3,1.7-2.1,3.6-2.7,5.6
			c-0.4,1.3-0.6,2.7-0.7,4c0,0.5-0.1,1-0.1,1.5c0,0.1,0,0.1,0,0.2c0-5.5,0-11,0-16.5C5.5,20.5,10.5,20.5,15.4,20.5z"/>
	</g>
</g>
<g id="shadow_2">
	<g>
		<g>
			<defs>
				<path id="SVGID_2_" d="M23.2,14.9c0.2,0.2,0.1,0.4,0,0.5c-0.1,0.2-0.2,0.4-0.3,0.6c-0.2,0.3-0.3,0.6-0.5,0.8
					c-0.1,0.1-0.2,0.2-0.2,0.3c-0.1,0.2-0.2,0.3-0.3,0.4c-0.1,0.1-0.1,0.1-0.1,0.2c0,0.2-0.2,0.4-0.3,0.6c-0.1,0.1-0.1,0.1-0.1,0.2
					c0,0.3-0.1,0.5-0.3,0.7c0,0-0.1,0.1-0.1,0.2c0,0.3-0.1,0.6-0.3,0.8c0,0-0.1,0.1-0.1,0.2c0,0.3-0.1,0.6-0.3,0.8
					c0,0-0.1,0.1-0.1,0.1c0,0.3-0.1,0.6-0.3,0.8c0,0.1-0.1,0.1-0.1,0.2c0,0.2,0,0.4-0.1,0.5c-0.1,0.1-0.1,0.2-0.1,0.4
					c0,0.1,0,0.1,0,0.2c0,0.1,0,0.2,0.1,0.2c0.1,0,0.1,0.1,0.2,0.2c0.1,0.3,0.1,0.6,0,0.9c0,0.1-0.1,0.2-0.2,0.2
					c-0.1,0-0.1,0.1-0.1,0.1c0.1,0.8,0.2,1.6,0.2,2.4c0.1,0.9,0.2,1.7,0.2,2.6c0,0.7-0.1,1.4-0.3,2c-0.3,1.1-0.9,1.9-2,2.3
					c0,0,0,0,0,0c0.1,0.1,0.1,0.1,0.2,0.1c0.3,0.1,0.5,0.3,0.7,0.4c0.1,0.1,0.1,0.1,0.2,0c1-0.5,2-1,3.1-1.3
					c0.3-0.1,0.6-0.2,0.9-0.2c0.1,0,0.1,0,0.2,0c0.1,0,0.2,0,0.2-0.1c0.2-0.7,0.4-1.3,0.5-2c0.1-0.6,0.3-1.2,0.6-1.8
					c0.1-0.3,0.3-0.5,0.6-0.7c0.1,0,0.1-0.1,0.1-0.2c0.1-0.3,0.1-0.5,0.3-0.7c0.1-0.2,0.3-0.3,0.5-0.3c0.1,0,0.1,0,0.2-0.1
					c0.3-0.2,0.4-0.5,0.4-0.9c0-0.2,0-0.4,0-0.6c0-0.1,0-0.1,0.1-0.2c0.1,0,0.1,0,0.2,0.1c0.3,0.7,0.7,1.3,1.3,1.7c0,0,0,0,0.1,0
					c0,0,0,0.1,0,0.1c0,0.1-0.1,0-0.1,0c-0.2-0.1-0.4-0.2-0.7-0.2c-0.2,0-0.5,0-0.7,0.2c-0.1,0-0.1,0.1-0.1,0.2
					c0.1,0.2,0,0.4-0.1,0.5c-0.1,0.1-0.3,0.2-0.5,0.3C26,29,26,29,26,29.1c0.3,0.2,0.3,0.4,0.1,0.7c-0.2,0.3-0.5,0.6-0.7,0.9
					c-0.5,0.6-0.7,1.2-0.8,2c0,0.4-0.1,0.7-0.3,1.1c-0.1,0.1-0.2,0.3-0.3,0.4c-0.4,0.2-0.7,0.5-1,0.7c-0.8,0.5-1.6,0.8-2.5,1.2
					c-0.4,0.1-0.7,0.3-1.1,0.4c-0.1,0-0.1,0-0.1,0.1c-0.2,0.4-0.5,0.7-0.9,0.9c-0.2,0.1-0.2,0.1,0,0.2c0.2,0.2,0.5,0.2,0.7,0.2
					c0.4,0,0.7,0,1.1,0c0.5,0,1,0,1.5,0.1c0.5,0.1,0.9,0.3,1.3,0.6c0.6,0.5,1.1,1.1,1.5,1.8c0.3,0.5,0.6,1.1,0.9,1.6
					c0.2,0.4,0.5,0.7,0.8,1c0.1,0.1,0.1,0.2,0.2,0.3c0.1,0.1,0.1,0.2,0,0.3c0,0.1,0,0.1,0.1,0.2c0.1,0.1,0.2,0.1,0.3,0.2
					c0.1,0.1,0.3,0.1,0.4,0.2c0.1,0.1,0.2,0.2,0.2,0.3c0,0.1,0,0.1,0.1,0.1c0.8,0.3,1.4,0.8,1.7,1.6c0,0.1,0.1,0.1,0,0.2
					c-0.1,0-0.1,0-0.2,0c-0.1-0.1-0.2-0.2-0.4-0.3c-0.3-0.2-0.6-0.1-0.7,0.2c-0.1,0.2-0.2,0.5-0.2,0.8c0,0,0,0.1,0,0.1
					c0,0.1-0.1,0.1-0.1,0.1c-0.1,0-0.1-0.1-0.1-0.1c0-0.2,0-0.4,0.1-0.7c0-0.4,0-0.8-0.2-1.1c0-0.1-0.1-0.1-0.1-0.2
					c-0.1-0.1-0.1-0.1-0.2-0.1c-0.1,0.1-0.2,0-0.3,0c-0.2-0.1-0.3-0.2-0.5-0.3c-0.2-0.2-0.4-0.4-0.6-0.5c-0.2-0.1-0.2-0.3-0.3-0.4
					c-0.1-0.4-0.3-0.8-0.4-1.2c-0.4-1.1-0.9-2.1-1.7-2.9c-0.2-0.2-0.4-0.4-0.6-0.5c-0.1-0.1-0.2-0.1-0.3-0.1
					c-0.4,0.1-0.8,0.2-1.2,0.2c-0.7,0-1.4,0-2,0c-0.1,0-0.2,0-0.3,0.1c-0.2,0.3-0.5,0.4-0.7,0.6c-0.1,0-0.1,0.1-0.2,0.1
					c0.2,0.1,0.3,0.1,0.4,0.1c0.4,0.1,0.7,0.3,1,0.6c0.2,0.2,0.3,0.3,0.4,0.6c0,0.1,0.1,0.1,0.1,0.2c0.4,0.3,0.8,0.5,1.2,0.7
					c0.5,0.3,1,0.5,1.6,0.8c0.6,0.2,0.9,0.7,1,1.3c0.1,0.5,0.2,1,0.3,1.5c0.2,0.7,0.5,1.4,0.8,2c0.1,0.3,0.3,0.6,0.4,0.9
					c0.1,0.2,0.1,0.3,0,0.5c-0.1,0,0,0.1,0,0.2c0.1,0.2,0.2,0.3,0.3,0.4c0.1,0.1,0.2,0.3,0.2,0.4c0,0,0,0,0,0.1
					c-0.1,0.2,0,0.2,0.1,0.3c0.5,0.4,0.8,1,0.8,1.7c0,0.1,0,0.2,0,0.3c0,0.1,0,0.1-0.1,0.2c-0.1,0-0.1,0-0.2-0.1
					c-0.1-0.2-0.1-0.3-0.2-0.5c0,0,0,0,0,0c-0.2-0.4-0.4-0.5-0.8-0.1c-0.1,0.1-0.2,0.3-0.3,0.4c0,0,0,0.1-0.1,0.1
					c-0.1,0-0.1,0-0.1-0.1c0,0,0-0.1,0-0.1c0.2-0.3,0.4-0.7,0.5-1.1c0-0.1,0-0.3,0-0.4c0-0.1-0.1-0.2-0.3-0.2
					c-0.2,0-0.3-0.1-0.3-0.3c-0.1-0.2-0.2-0.5-0.3-0.7c0-0.1-0.1-0.2-0.2-0.1c-0.1,0-0.2,0-0.3-0.2c0-0.2-0.1-0.4-0.1-0.5
					c0-0.5,0-1-0.1-1.6c-0.1-0.8-0.4-1.6-0.8-2.3c-0.2-0.4-0.5-0.7-0.8-1c0,0-0.1-0.1-0.2-0.1c-0.4,0-0.8-0.2-1.1-0.3
					c-0.5-0.2-0.9-0.4-1.4-0.7c-0.2-0.1-0.2,0.1-0.3,0.1c-0.1,0.1,0,0.1,0,0.2c0.3,0.4,0.6,0.9,0.7,1.4c0,0.1,0,0.1,0.1,0.2
					c0.4,0.6,0.6,1.2,0.6,1.9c0,0.1,0,0.1,0,0.2c0.3,0.7,0.4,1.3,0.4,2.1c0,0.4,0,0.7,0,1.1c0.1,0.8-0.1,1.5-0.4,2.2
					c0,0.1-0.1,0.2,0,0.2c0,0.4,0,0.7-0.1,1.1c-0.1,0.3-0.2,0.6-0.5,0.8c-0.4,0.4-0.7,0.8-1,1.3c-0.3,0.4-0.6,0.8-1,1.1
					c-0.7,0.6-1.5,0.6-2.2,0c-0.6-0.4-1-1-1.4-1.5c-0.1-0.2-0.3-0.3-0.5-0.5c-0.6-0.5-0.9-1.1-0.9-1.8c0-0.2,0-0.3-0.1-0.5
					c-0.5-0.8-0.7-1.6-0.6-2.4c0-0.3,0-0.5-0.1-0.8c-0.1-0.7-0.1-1.4,0.2-2c0-0.1,0-0.1,0-0.2c0-0.7,0.1-1.3,0.4-1.9
					c0-0.1,0.1-0.2,0.1-0.3c0.1-0.5,0.2-0.9,0.5-1.4c0.1-0.2,0.1-0.3-0.1-0.4c-0.1,0-0.1,0-0.1,0c-0.4,0.3-0.9,0.6-1.3,0.8
					c-0.4,0.2-0.7,0.3-1.1,0.4c-0.1,0-0.1,0-0.2,0.1c-0.5,0.6-0.8,1.3-1,2.1c-0.1,0.4-0.2,0.9-0.2,1.3c0,0.6,0,1.1,0.1,1.7
					c0,0.2,0,0.3,0,0.5C9.3,50,9.2,50.1,9,50c-0.1,0-0.1,0-0.1,0.1c-0.1,0.3-0.1,0.6-0.3,0.8c-0.1,0.2-0.2,0.3-0.4,0.3
					c-0.1,0-0.1,0-0.1,0.1c-0.1,0.2-0.1,0.3,0,0.5c0.1,0.3,0.3,0.6,0.5,0.9c0,0.1,0.1,0.1,0.1,0.1c0,0,0.1,0.1,0,0.1
					c-0.1,0-0.1,0.1-0.2,0c-0.2-0.2-0.3-0.4-0.6-0.6c-0.2-0.2-0.4-0.1-0.6,0.1c-0.1,0.2-0.2,0.4-0.2,0.6c0,0,0,0.1,0,0.1
					c0,0.1-0.1,0.1-0.1,0.1c-0.1,0-0.1,0-0.1-0.1c-0.1-0.8,0.1-1.6,0.7-2.2c0.1-0.1,0.1-0.1,0.1-0.3c-0.1-0.1,0-0.3,0-0.4
					C7.8,50.3,7.9,50.2,8,50c0.1-0.1,0.1-0.2,0-0.4c-0.1-0.1,0-0.2,0-0.3c0-0.3,0.2-0.5,0.3-0.8c0.3-0.6,0.5-1.3,0.6-2
					C9,46,9,45.5,9.1,44.9c0-0.2,0.1-0.4,0.1-0.6c0.1-0.4,0.4-0.7,0.8-0.9c0.7-0.4,1.3-0.8,1.9-1.2c0.3-0.2,0.6-0.4,0.8-0.6
					c0,0,0.1-0.1,0.1-0.1c0.2-0.5,0.6-0.8,1-1.1c0.2-0.1,0.4-0.2,0.7-0.3c-0.2-0.1-0.4-0.2-0.5-0.3c-0.2-0.1-0.3-0.2-0.5-0.4
					c-0.1-0.1-0.1-0.1-0.2-0.1c-0.9,0.1-1.8,0.2-2.6,0.2c-0.2,0-0.5,0-0.7-0.1c-0.1,0-0.1,0-0.2,0.1c-0.8,0.8-1.4,1.7-1.8,2.8
					c-0.2,0.6-0.3,1.2-0.5,1.7c0,0.1-0.1,0.3-0.1,0.4C7.3,44.8,7.2,44.9,7,45C7,45,7,45,6.9,45.1c-0.2,0.2-0.4,0.4-0.6,0.6
					c-0.2,0.1-0.3,0.2-0.6,0.1c-0.1,0-0.1,0-0.2,0.1c-0.1,0.1-0.1,0.3-0.2,0.4c-0.1,0.3,0,0.7,0,1c0,0.2,0.1,0.4,0.1,0.6
					c0,0.1,0.1,0.2,0,0.2c-0.1,0-0.2-0.1-0.2-0.2c-0.1-0.3-0.1-0.5-0.3-0.8c-0.2-0.3-0.4-0.3-0.7-0.1c-0.1,0.1-0.2,0.2-0.3,0.2
					C4,47.2,4,47.3,3.9,47.3c0,0.1-0.1,0-0.2,0c-0.1,0,0-0.1,0-0.1c0.3-0.8,0.8-1.4,1.6-1.8c0.1,0,0.1-0.1,0.1-0.2
					c0-0.2,0.1-0.3,0.2-0.3c0.1-0.1,0.2-0.1,0.3-0.2c0.1-0.1,0.2-0.1,0.3-0.2c0,0,0.1-0.1,0-0.1c-0.1-0.2,0-0.3,0-0.4
					c0.1-0.1,0.2-0.3,0.3-0.4c0.4-0.5,0.6-1,0.9-1.5c0.4-0.8,0.7-1.6,1.3-2.4c0.6-0.8,1.3-1.3,2.2-1.4c0.6-0.1,1.3-0.1,1.9-0.2
					c0.2,0,0.4,0,0.6,0c0.1,0,0.1,0,0.2-0.1c0.1-0.1,0.2-0.2,0.4-0.3c0.1-0.1,0.1-0.1,0-0.1c-0.2-0.1-0.5-0.2-0.7-0.4
					c-0.1-0.1-0.3-0.2-0.3-0.4c-0.1-0.1-0.1-0.1-0.2-0.2c-0.6-0.1-1.1-0.3-1.7-0.5c-1-0.3-1.9-0.7-2.8-1.2C8.1,34.9,8,34.9,8,34.8
					c-0.3-0.2-0.5-0.5-0.6-0.8c-0.1-0.3-0.2-0.7-0.3-1c-0.1-0.5-0.4-1-0.8-1.4C6,31.2,5.7,31,5.4,30.7c-0.2-0.3-0.2-0.4,0-0.7
					c0.1-0.1,0-0.1,0-0.1c-0.1-0.1-0.3-0.1-0.4-0.2c-0.3-0.2-0.3-0.3-0.3-0.6c0-0.1,0-0.1-0.1-0.1c-0.4-0.2-0.7-0.2-1.1,0
					c-0.1,0.1-0.2,0.1-0.3,0.2c0-0.1,0-0.1,0-0.2c0.6-0.5,0.9-1.1,1.2-1.8c0-0.1,0-0.2,0.1-0.2c0.1,0,0.1,0.1,0.1,0.2
					c0,0.1,0,0.2,0,0.4c0,0.3,0.1,0.6,0.3,0.9c0.1,0.1,0.2,0.2,0.3,0.2c0.2,0,0.4,0.1,0.5,0.2C5.9,29,6,29.2,6,29.3
					c0.1,0.2,0.1,0.3,0.3,0.4c0,0,0,0,0.1,0.1c0.4,0.3,0.6,0.8,0.8,1.2C7.5,31.7,7.7,32.3,8,33c0.1,0.4,0.3,0.7,0.4,1.1
					c0,0,0,0.1,0.1,0.1c0.5-0.1,1,0.1,1.4,0.2c1,0.3,2.1,0.6,3.1,1c0.1,0,0.1,0,0.2,0c0.2-0.2,0.4-0.4,0.6-0.5
					c0.1-0.1,0.2-0.1,0.3-0.2c0,0,0,0-0.1,0c-1.1-0.4-1.8-1.1-2.2-2.2c-0.3-0.9-0.4-1.8-0.5-2.8c0-0.8,0-1.7,0.1-2.5
					c0-0.2,0-0.5,0-0.7c0-0.4,0-0.8,0.1-1.2c0,0,0-0.1,0-0.1c-0.2-0.2-0.3-0.5-0.2-0.8c0-0.2,0.1-0.4,0.2-0.5
					c0.2-0.2,0.2-0.4,0.1-0.6c-0.1-0.2-0.2-0.4-0.2-0.6c0-0.1,0-0.1-0.1-0.1c-0.2-0.2-0.3-0.5-0.3-0.8c0-0.1,0-0.2-0.1-0.2
					c-0.2-0.2-0.3-0.5-0.3-0.8c0-0.1,0-0.1-0.1-0.2c-0.2-0.2-0.3-0.4-0.3-0.7c0-0.1,0-0.1-0.1-0.2c-0.2-0.1-0.3-0.3-0.3-0.6
					c0-0.1-0.1-0.2-0.2-0.3c-0.1-0.1-0.2-0.1-0.2-0.2c-0.1-0.3-0.3-0.5-0.5-0.7c-0.1-0.2-0.2-0.4-0.4-0.6c-0.1-0.1-0.1-0.1-0.1-0.2
					C8.1,17,8,16.9,8,16.9c-0.2-0.1-0.3-0.3-0.4-0.5c0-0.1-0.1-0.1-0.1-0.2c-0.2-0.1-0.2-0.3-0.3-0.5c0-0.1,0-0.2,0.1-0.2
					c0.1,0,0.1,0,0.2,0c0.2,0.1,0.3,0.2,0.4,0.4c0,0.1,0.1,0.1,0.1,0.2c0.1,0.1,0.2,0.2,0.3,0.3c0.1,0.2,0.3,0.3,0.4,0.5
					c0.2,0.3,0.4,0.5,0.6,0.8c0,0.1,0.1,0.1,0.1,0.2c0,0.1,0.1,0.1,0.1,0.1c0.2,0.2,0.4,0.4,0.5,0.6c0,0,0,0.1,0.1,0.1
					c0.2,0.2,0.4,0.4,0.4,0.7c0,0.1,0,0.1,0.1,0.2c0.2,0.2,0.3,0.4,0.4,0.7c0,0.1,0,0.2,0.1,0.2c0.2,0.2,0.4,0.5,0.4,0.8
					c0,0.1,0,0.1,0.1,0.1c0.1,0.1,0.2,0.2,0.3,0.3c0.1,0.1,0.1,0.3,0.1,0.5c0,0.1,0,0.1,0.1,0.1c0.1,0,0.1,0,0.1-0.1
					c0.1-0.2,0.2-0.3,0.3-0.4c0,0,0.1-0.1,0-0.1c0-0.1-0.1-0.3-0.1-0.4c-0.2-0.9-0.4-1.7-0.4-2.7c0.1-0.6,0.3-1.2,0.7-1.8
					c0.4-0.5,0.8-0.8,1.4-1.1c0,0,0.1-0.1,0.1,0c0,0,0,0.1,0,0.1c-0.1,0.2-0.2,0.4-0.3,0.7c-0.1,0.3-0.3,0.6-0.3,0.9
					c0,0.2,0,0.4,0.1,0.5c0.1,0.2,0.3,0.3,0.5,0.3c0.1,0,0.1,0.1,0,0.1c-0.2,0.2-0.3,0.4-0.4,0.6c-0.1,0.2,0,0.4,0.1,0.6
					c0,0,0.1,0.1,0.1,0.1c0.1,0.1,0.1,0.1,0,0.2c-0.1,0.1-0.1,0.2-0.1,0.3c-0.1,0.3-0.1,0.7,0.2,0.9c0.1,0.1,0.4,0.1,0.4-0.1
					c0.1-0.2,0.1-0.4,0.2-0.6c0.1-0.2,0.1-0.4,0.3-0.5c0,0,0.1-0.1,0.1-0.1c0.1,0,0.1,0.1,0.1,0.1c0,0.1,0,0.3,0,0.4
					c0,0.2,0,0.5-0.1,0.7c0,0,0,0.1,0,0.1c0,0,0.1,0,0.1,0c0.1-0.1,0.1-0.2,0.2-0.2c0.2-0.3,0.5-0.3,0.8,0c0.1,0.1,0.2,0.2,0.4,0.3
					c0-0.1-0.1-0.2-0.1-0.3C16.1,20.6,16,20.3,16,20c0-0.1,0-0.2,0.1-0.2c0.1,0,0.1,0,0.2,0.1c0.1,0.1,0.2,0.3,0.3,0.4
					c0.1,0.2,0.2,0.4,0.3,0.5c0.1,0.1,0.3,0.2,0.4,0.1c0.2-0.2,0.3-0.5,0.2-0.8c-0.1-0.1-0.1-0.3-0.2-0.4c-0.1-0.1-0.1-0.1,0-0.2
					c0.4-0.2,0.3-0.6,0.1-0.8c-0.1-0.2-0.2-0.3-0.4-0.4c-0.1-0.1-0.1-0.1,0-0.1c0.1,0,0.1-0.1,0.2-0.1c0.3-0.2,0.5-0.5,0.4-0.9
					c-0.1-0.2-0.1-0.3-0.2-0.5c-0.2-0.3-0.4-0.6-0.6-1c0,0-0.1-0.1,0-0.1c0,0,0.1,0,0.1,0c0.2,0.1,0.3,0.2,0.5,0.3
					c0.6,0.3,1.1,0.7,1.4,1.3c0.3,0.6,0.4,1.2,0.5,1.9c0,0.8-0.1,1.6-0.3,2.4c0,0.1,0,0.1,0.1,0.2c0.1,0.1,0.3,0.2,0.4,0.3
					c0.1,0.1,0.1,0.1,0.2,0c0,0,0-0.1,0-0.1c0-0.3,0.1-0.6,0.3-0.8c0,0,0-0.1,0-0.1c0-0.3,0.1-0.6,0.3-0.8c0,0,0.1-0.1,0-0.1
					c0-0.3,0.1-0.6,0.3-0.9c0,0,0-0.1,0-0.1c0-0.3,0.1-0.5,0.4-0.7c0,0,0-0.1,0.1-0.1c0.1-0.3,0.2-0.5,0.4-0.7c0,0,0.1-0.1,0.1-0.1
					c0.1-0.2,0.2-0.4,0.3-0.6c0,0,0.1-0.1,0.1-0.1c0-0.2,0.2-0.4,0.3-0.5c0,0,0.1-0.1,0.1-0.1c0.1-0.2,0.2-0.4,0.3-0.5
					c0,0,0.1-0.1,0.1-0.1c0.1-0.2,0.2-0.4,0.4-0.5C23.1,14.9,23.2,14.9,23.2,14.9z"/>
			</defs>
			<clipPath id="SVGID_3_">
				<use xlink:href="#SVGID_2_"  overflow="visible"/>
			</clipPath>
			<path clip-path="url(#SVGID_3_)" fill="#606060" d="M11.2,30.1"/>
		</g>
		<g>
			<defs>
				<path id="SVGID_4_" d="M23.2,14.9c0.2,0.2,0.1,0.4,0,0.5c-0.1,0.2-0.2,0.4-0.3,0.6c-0.2,0.3-0.3,0.6-0.5,0.8
					c-0.1,0.1-0.2,0.2-0.2,0.3c-0.1,0.2-0.2,0.3-0.3,0.4c-0.1,0.1-0.1,0.1-0.1,0.2c0,0.2-0.2,0.4-0.3,0.6c-0.1,0.1-0.1,0.1-0.1,0.2
					c0,0.3-0.1,0.5-0.3,0.7c0,0-0.1,0.1-0.1,0.2c0,0.3-0.1,0.6-0.3,0.8c0,0-0.1,0.1-0.1,0.2c0,0.3-0.1,0.6-0.3,0.8
					c0,0-0.1,0.1-0.1,0.1c0,0.3-0.1,0.6-0.3,0.8c0,0.1-0.1,0.1-0.1,0.2c0,0.2,0,0.4-0.1,0.5c-0.1,0.1-0.1,0.2-0.1,0.4
					c0,0.1,0,0.1,0,0.2c0,0.1,0,0.2,0.1,0.2c0.1,0,0.1,0.1,0.2,0.2c0.1,0.3,0.1,0.6,0,0.9c0,0.1-0.1,0.2-0.2,0.2
					c-0.1,0-0.1,0.1-0.1,0.1c0.1,0.8,0.2,1.6,0.2,2.4c0.1,0.9,0.2,1.7,0.2,2.6c0,0.7-0.1,1.4-0.3,2c-0.3,1.1-0.9,1.9-2,2.3
					c0,0,0,0,0,0c0.1,0.1,0.1,0.1,0.2,0.1c0.3,0.1,0.5,0.3,0.7,0.4c0.1,0.1,0.1,0.1,0.2,0c1-0.5,2-1,3.1-1.3
					c0.3-0.1,0.6-0.2,0.9-0.2c0.1,0,0.1,0,0.2,0c0.1,0,0.2,0,0.2-0.1c0.2-0.7,0.4-1.3,0.5-2c0.1-0.6,0.3-1.2,0.6-1.8
					c0.1-0.3,0.3-0.5,0.6-0.7c0.1,0,0.1-0.1,0.1-0.2c0.1-0.3,0.1-0.5,0.3-0.7c0.1-0.2,0.3-0.3,0.5-0.3c0.1,0,0.1,0,0.2-0.1
					c0.3-0.2,0.4-0.5,0.4-0.9c0-0.2,0-0.4,0-0.6c0-0.1,0-0.1,0.1-0.2c0.1,0,0.1,0,0.2,0.1c0.3,0.7,0.7,1.3,1.3,1.7c0,0,0,0,0.1,0
					c0,0,0,0.1,0,0.1c0,0.1-0.1,0-0.1,0c-0.2-0.1-0.4-0.2-0.7-0.2c-0.2,0-0.5,0-0.7,0.2c-0.1,0-0.1,0.1-0.1,0.2
					c0.1,0.2,0,0.4-0.1,0.5c-0.1,0.1-0.3,0.2-0.5,0.3C26,29,26,29,26,29.1c0.3,0.2,0.3,0.4,0.1,0.7c-0.2,0.3-0.5,0.6-0.7,0.9
					c-0.5,0.6-0.7,1.2-0.8,2c0,0.4-0.1,0.7-0.3,1.1c-0.1,0.1-0.2,0.3-0.3,0.4c-0.4,0.2-0.7,0.5-1,0.7c-0.8,0.5-1.6,0.8-2.5,1.2
					c-0.4,0.1-0.7,0.3-1.1,0.4c-0.1,0-0.1,0-0.1,0.1c-0.2,0.4-0.5,0.7-0.9,0.9c-0.2,0.1-0.2,0.1,0,0.2c0.2,0.2,0.5,0.2,0.7,0.2
					c0.4,0,0.7,0,1.1,0c0.5,0,1,0,1.5,0.1c0.5,0.1,0.9,0.3,1.3,0.6c0.6,0.5,1.1,1.1,1.5,1.8c0.3,0.5,0.6,1.1,0.9,1.6
					c0.2,0.4,0.5,0.7,0.8,1c0.1,0.1,0.1,0.2,0.2,0.3c0.1,0.1,0.1,0.2,0,0.3c0,0.1,0,0.1,0.1,0.2c0.1,0.1,0.2,0.1,0.3,0.2
					c0.1,0.1,0.3,0.1,0.4,0.2c0.1,0.1,0.2,0.2,0.2,0.3c0,0.1,0,0.1,0.1,0.1c0.8,0.3,1.4,0.8,1.7,1.6c0,0.1,0.1,0.1,0,0.2
					c-0.1,0-0.1,0-0.2,0c-0.1-0.1-0.2-0.2-0.4-0.3c-0.3-0.2-0.6-0.1-0.7,0.2c-0.1,0.2-0.2,0.5-0.2,0.8c0,0,0,0.1,0,0.1
					c0,0.1-0.1,0.1-0.1,0.1c-0.1,0-0.1-0.1-0.1-0.1c0-0.2,0-0.4,0.1-0.7c0-0.4,0-0.8-0.2-1.1c0-0.1-0.1-0.1-0.1-0.2
					c-0.1-0.1-0.1-0.1-0.2-0.1c-0.1,0.1-0.2,0-0.3,0c-0.2-0.1-0.3-0.2-0.5-0.3c-0.2-0.2-0.4-0.4-0.6-0.5c-0.2-0.1-0.2-0.3-0.3-0.4
					c-0.1-0.4-0.3-0.8-0.4-1.2c-0.4-1.1-0.9-2.1-1.7-2.9c-0.2-0.2-0.4-0.4-0.6-0.5c-0.1-0.1-0.2-0.1-0.3-0.1
					c-0.4,0.1-0.8,0.2-1.2,0.2c-0.7,0-1.4,0-2,0c-0.1,0-0.2,0-0.3,0.1c-0.2,0.3-0.5,0.4-0.7,0.6c-0.1,0-0.1,0.1-0.2,0.1
					c0.2,0.1,0.3,0.1,0.4,0.1c0.4,0.1,0.7,0.3,1,0.6c0.2,0.2,0.3,0.3,0.4,0.6c0,0.1,0.1,0.1,0.1,0.2c0.4,0.3,0.8,0.5,1.2,0.7
					c0.5,0.3,1,0.5,1.6,0.8c0.6,0.2,0.9,0.7,1,1.3c0.1,0.5,0.2,1,0.3,1.5c0.2,0.7,0.5,1.4,0.8,2c0.1,0.3,0.3,0.6,0.4,0.9
					c0.1,0.2,0.1,0.3,0,0.5c-0.1,0,0,0.1,0,0.2c0.1,0.2,0.2,0.3,0.3,0.4c0.1,0.1,0.2,0.3,0.2,0.4c0,0,0,0,0,0.1
					c-0.1,0.2,0,0.2,0.1,0.3c0.5,0.4,0.8,1,0.8,1.7c0,0.1,0,0.2,0,0.3c0,0.1,0,0.1-0.1,0.2c-0.1,0-0.1,0-0.2-0.1
					c-0.1-0.2-0.1-0.3-0.2-0.5c0,0,0,0,0,0c-0.2-0.4-0.4-0.5-0.8-0.1c-0.1,0.1-0.2,0.3-0.3,0.4c0,0,0,0.1-0.1,0.1
					c-0.1,0-0.1,0-0.1-0.1c0,0,0-0.1,0-0.1c0.2-0.3,0.4-0.7,0.5-1.1c0-0.1,0-0.3,0-0.4c0-0.1-0.1-0.2-0.3-0.2
					c-0.2,0-0.3-0.1-0.3-0.3c-0.1-0.2-0.2-0.5-0.3-0.7c0-0.1-0.1-0.2-0.2-0.1c-0.1,0-0.2,0-0.3-0.2c0-0.2-0.1-0.4-0.1-0.5
					c0-0.5,0-1-0.1-1.6c-0.1-0.8-0.4-1.6-0.8-2.3c-0.2-0.4-0.5-0.7-0.8-1c0,0-0.1-0.1-0.2-0.1c-0.4,0-0.8-0.2-1.1-0.3
					c-0.5-0.2-0.9-0.4-1.4-0.7c-0.2-0.1-0.2,0.1-0.3,0.1c-0.1,0.1,0,0.1,0,0.2c0.3,0.4,0.6,0.9,0.7,1.4c0,0.1,0,0.1,0.1,0.2
					c0.4,0.6,0.6,1.2,0.6,1.9c0,0.1,0,0.1,0,0.2c0.3,0.7,0.4,1.3,0.4,2.1c0,0.4,0,0.7,0,1.1c0.1,0.8-0.1,1.5-0.4,2.2
					c0,0.1-0.1,0.2,0,0.2c0,0.4,0,0.7-0.1,1.1c-0.1,0.3-0.2,0.6-0.5,0.8c-0.4,0.4-0.7,0.8-1,1.3c-0.3,0.4-0.6,0.8-1,1.1
					c-0.7,0.6-1.5,0.6-2.2,0c-0.6-0.4-1-1-1.4-1.5c-0.1-0.2-0.3-0.3-0.5-0.5c-0.6-0.5-0.9-1.1-0.9-1.8c0-0.2,0-0.3-0.1-0.5
					c-0.5-0.8-0.7-1.6-0.6-2.4c0-0.3,0-0.5-0.1-0.8c-0.1-0.7-0.1-1.4,0.2-2c0-0.1,0-0.1,0-0.2c0-0.7,0.1-1.3,0.4-1.9
					c0-0.1,0.1-0.2,0.1-0.3c0.1-0.5,0.2-0.9,0.5-1.4c0.1-0.2,0.1-0.3-0.1-0.4c-0.1,0-0.1,0-0.1,0c-0.4,0.3-0.9,0.6-1.3,0.8
					c-0.4,0.2-0.7,0.3-1.1,0.4c-0.1,0-0.1,0-0.2,0.1c-0.5,0.6-0.8,1.3-1,2.1c-0.1,0.4-0.2,0.9-0.2,1.3c0,0.6,0,1.1,0.1,1.7
					c0,0.2,0,0.3,0,0.5C9.3,50,9.2,50.1,9,50c-0.1,0-0.1,0-0.1,0.1c-0.1,0.3-0.1,0.6-0.3,0.8c-0.1,0.2-0.2,0.3-0.4,0.3
					c-0.1,0-0.1,0-0.1,0.1c-0.1,0.2-0.1,0.3,0,0.5c0.1,0.3,0.3,0.6,0.5,0.9c0,0.1,0.1,0.1,0.1,0.1c0,0,0.1,0.1,0,0.1
					c-0.1,0-0.1,0.1-0.2,0c-0.2-0.2-0.3-0.4-0.6-0.6c-0.2-0.2-0.4-0.1-0.6,0.1c-0.1,0.2-0.2,0.4-0.2,0.6c0,0,0,0.1,0,0.1
					c0,0.1-0.1,0.1-0.1,0.1c-0.1,0-0.1,0-0.1-0.1c-0.1-0.8,0.1-1.6,0.7-2.2c0.1-0.1,0.1-0.1,0.1-0.3c-0.1-0.1,0-0.3,0-0.4
					C7.8,50.3,7.9,50.2,8,50c0.1-0.1,0.1-0.2,0-0.4c-0.1-0.1,0-0.2,0-0.3c0-0.3,0.2-0.5,0.3-0.8c0.3-0.6,0.5-1.3,0.6-2
					C9,46,9,45.5,9.1,44.9c0-0.2,0.1-0.4,0.1-0.6c0.1-0.4,0.4-0.7,0.8-0.9c0.7-0.4,1.3-0.8,1.9-1.2c0.3-0.2,0.6-0.4,0.8-0.6
					c0,0,0.1-0.1,0.1-0.1c0.2-0.5,0.6-0.8,1-1.1c0.2-0.1,0.4-0.2,0.7-0.3c-0.2-0.1-0.4-0.2-0.5-0.3c-0.2-0.1-0.3-0.2-0.5-0.4
					c-0.1-0.1-0.1-0.1-0.2-0.1c-0.9,0.1-1.8,0.2-2.6,0.2c-0.2,0-0.5,0-0.7-0.1c-0.1,0-0.1,0-0.2,0.1c-0.8,0.8-1.4,1.7-1.8,2.8
					c-0.2,0.6-0.3,1.2-0.5,1.7c0,0.1-0.1,0.3-0.1,0.4C7.3,44.8,7.2,44.9,7,45C7,45,7,45,6.9,45.1c-0.2,0.2-0.4,0.4-0.6,0.6
					c-0.2,0.1-0.3,0.2-0.6,0.1c-0.1,0-0.1,0-0.2,0.1c-0.1,0.1-0.1,0.3-0.2,0.4c-0.1,0.3,0,0.7,0,1c0,0.2,0.1,0.4,0.1,0.6
					c0,0.1,0.1,0.2,0,0.2c-0.1,0-0.2-0.1-0.2-0.2c-0.1-0.3-0.1-0.5-0.3-0.8c-0.2-0.3-0.4-0.3-0.7-0.1c-0.1,0.1-0.2,0.2-0.3,0.2
					C4,47.2,4,47.3,3.9,47.3c0,0.1-0.1,0-0.2,0c-0.1,0,0-0.1,0-0.1c0.3-0.8,0.8-1.4,1.6-1.8c0.1,0,0.1-0.1,0.1-0.2
					c0-0.2,0.1-0.3,0.2-0.3c0.1-0.1,0.2-0.1,0.3-0.2c0.1-0.1,0.2-0.1,0.3-0.2c0,0,0.1-0.1,0-0.1c-0.1-0.2,0-0.3,0-0.4
					c0.1-0.1,0.2-0.3,0.3-0.4c0.4-0.5,0.6-1,0.9-1.5c0.4-0.8,0.7-1.6,1.3-2.4c0.6-0.8,1.3-1.3,2.2-1.4c0.6-0.1,1.3-0.1,1.9-0.2
					c0.2,0,0.4,0,0.6,0c0.1,0,0.1,0,0.2-0.1c0.1-0.1,0.2-0.2,0.4-0.3c0.1-0.1,0.1-0.1,0-0.1c-0.2-0.1-0.5-0.2-0.7-0.4
					c-0.1-0.1-0.3-0.2-0.3-0.4c-0.1-0.1-0.1-0.1-0.2-0.2c-0.6-0.1-1.1-0.3-1.7-0.5c-1-0.3-1.9-0.7-2.8-1.2C8.1,34.9,8,34.9,8,34.8
					c-0.3-0.2-0.5-0.5-0.6-0.8c-0.1-0.3-0.2-0.7-0.3-1c-0.1-0.5-0.4-1-0.8-1.4C6,31.2,5.7,31,5.4,30.7c-0.2-0.3-0.2-0.4,0-0.7
					c0.1-0.1,0-0.1,0-0.1c-0.1-0.1-0.3-0.1-0.4-0.2c-0.3-0.2-0.3-0.3-0.3-0.6c0-0.1,0-0.1-0.1-0.1c-0.4-0.2-0.7-0.2-1.1,0
					c-0.1,0.1-0.2,0.1-0.3,0.2c0-0.1,0-0.1,0-0.2c0.6-0.5,0.9-1.1,1.2-1.8c0-0.1,0-0.2,0.1-0.2c0.1,0,0.1,0.1,0.1,0.2
					c0,0.1,0,0.2,0,0.4c0,0.3,0.1,0.6,0.3,0.9c0.1,0.1,0.2,0.2,0.3,0.2c0.2,0,0.4,0.1,0.5,0.2C5.9,29,6,29.2,6,29.3
					c0.1,0.2,0.1,0.3,0.3,0.4c0,0,0,0,0.1,0.1c0.4,0.3,0.6,0.8,0.8,1.2C7.5,31.7,7.7,32.3,8,33c0.1,0.4,0.3,0.7,0.4,1.1
					c0,0,0,0.1,0.1,0.1c0.5-0.1,1,0.1,1.4,0.2c1,0.3,2.1,0.6,3.1,1c0.1,0,0.1,0,0.2,0c0.2-0.2,0.4-0.4,0.6-0.5
					c0.1-0.1,0.2-0.1,0.3-0.2c0,0,0,0-0.1,0c-1.1-0.4-1.8-1.1-2.2-2.2c-0.3-0.9-0.4-1.8-0.5-2.8c0-0.8,0-1.7,0.1-2.5
					c0-0.2,0-0.5,0-0.7c0-0.4,0-0.8,0.1-1.2c0,0,0-0.1,0-0.1c-0.2-0.2-0.3-0.5-0.2-0.8c0-0.2,0.1-0.4,0.2-0.5
					c0.2-0.2,0.2-0.4,0.1-0.6c-0.1-0.2-0.2-0.4-0.2-0.6c0-0.1,0-0.1-0.1-0.1c-0.2-0.2-0.3-0.5-0.3-0.8c0-0.1,0-0.2-0.1-0.2
					c-0.2-0.2-0.3-0.5-0.3-0.8c0-0.1,0-0.1-0.1-0.2c-0.2-0.2-0.3-0.4-0.3-0.7c0-0.1,0-0.1-0.1-0.2c-0.2-0.1-0.3-0.3-0.3-0.6
					c0-0.1-0.1-0.2-0.2-0.3c-0.1-0.1-0.2-0.1-0.2-0.2c-0.1-0.3-0.3-0.5-0.5-0.7c-0.1-0.2-0.2-0.4-0.4-0.6c-0.1-0.1-0.1-0.1-0.1-0.2
					C8.1,17,8,16.9,8,16.9c-0.2-0.1-0.3-0.3-0.4-0.5c0-0.1-0.1-0.1-0.1-0.2c-0.2-0.1-0.2-0.3-0.3-0.5c0-0.1,0-0.2,0.1-0.2
					c0.1,0,0.1,0,0.2,0c0.2,0.1,0.3,0.2,0.4,0.4c0,0.1,0.1,0.1,0.1,0.2c0.1,0.1,0.2,0.2,0.3,0.3c0.1,0.2,0.3,0.3,0.4,0.5
					c0.2,0.3,0.4,0.5,0.6,0.8c0,0.1,0.1,0.1,0.1,0.2c0,0.1,0.1,0.1,0.1,0.1c0.2,0.2,0.4,0.4,0.5,0.6c0,0,0,0.1,0.1,0.1
					c0.2,0.2,0.4,0.4,0.4,0.7c0,0.1,0,0.1,0.1,0.2c0.2,0.2,0.3,0.4,0.4,0.7c0,0.1,0,0.2,0.1,0.2c0.2,0.2,0.4,0.5,0.4,0.8
					c0,0.1,0,0.1,0.1,0.1c0.1,0.1,0.2,0.2,0.3,0.3c0.1,0.1,0.1,0.3,0.1,0.5c0,0.1,0,0.1,0.1,0.1c0.1,0,0.1,0,0.1-0.1
					c0.1-0.2,0.2-0.3,0.3-0.4c0,0,0.1-0.1,0-0.1c0-0.1-0.1-0.3-0.1-0.4c-0.2-0.9-0.4-1.7-0.4-2.7c0.1-0.6,0.3-1.2,0.7-1.8
					c0.4-0.5,0.8-0.8,1.4-1.1c0,0,0.1-0.1,0.1,0c0,0,0,0.1,0,0.1c-0.1,0.2-0.2,0.4-0.3,0.7c-0.1,0.3-0.3,0.6-0.3,0.9
					c0,0.2,0,0.4,0.1,0.5c0.1,0.2,0.3,0.3,0.5,0.3c0.1,0,0.1,0.1,0,0.1c-0.2,0.2-0.3,0.4-0.4,0.6c-0.1,0.2,0,0.4,0.1,0.6
					c0,0,0.1,0.1,0.1,0.1c0.1,0.1,0.1,0.1,0,0.2c-0.1,0.1-0.1,0.2-0.1,0.3c-0.1,0.3-0.1,0.7,0.2,0.9c0.1,0.1,0.4,0.1,0.4-0.1
					c0.1-0.2,0.1-0.4,0.2-0.6c0.1-0.2,0.1-0.4,0.3-0.5c0,0,0.1-0.1,0.1-0.1c0.1,0,0.1,0.1,0.1,0.1c0,0.1,0,0.3,0,0.4
					c0,0.2,0,0.5-0.1,0.7c0,0,0,0.1,0,0.1c0,0,0.1,0,0.1,0c0.1-0.1,0.1-0.2,0.2-0.2c0.2-0.3,0.5-0.3,0.8,0c0.1,0.1,0.2,0.2,0.4,0.3
					c0-0.1-0.1-0.2-0.1-0.3C16.1,20.6,16,20.3,16,20c0-0.1,0-0.2,0.1-0.2c0.1,0,0.1,0,0.2,0.1c0.1,0.1,0.2,0.3,0.3,0.4
					c0.1,0.2,0.2,0.4,0.3,0.5c0.1,0.1,0.3,0.2,0.4,0.1c0.2-0.2,0.3-0.5,0.2-0.8c-0.1-0.1-0.1-0.3-0.2-0.4c-0.1-0.1-0.1-0.1,0-0.2
					c0.4-0.2,0.3-0.6,0.1-0.8c-0.1-0.2-0.2-0.3-0.4-0.4c-0.1-0.1-0.1-0.1,0-0.1c0.1,0,0.1-0.1,0.2-0.1c0.3-0.2,0.5-0.5,0.4-0.9
					c-0.1-0.2-0.1-0.3-0.2-0.5c-0.2-0.3-0.4-0.6-0.6-1c0,0-0.1-0.1,0-0.1c0,0,0.1,0,0.1,0c0.2,0.1,0.3,0.2,0.5,0.3
					c0.6,0.3,1.1,0.7,1.4,1.3c0.3,0.6,0.4,1.2,0.5,1.9c0,0.8-0.1,1.6-0.3,2.4c0,0.1,0,0.1,0.1,0.2c0.1,0.1,0.3,0.2,0.4,0.3
					c0.1,0.1,0.1,0.1,0.2,0c0,0,0-0.1,0-0.1c0-0.3,0.1-0.6,0.3-0.8c0,0,0-0.1,0-0.1c0-0.3,0.1-0.6,0.3-0.8c0,0,0.1-0.1,0-0.1
					c0-0.3,0.1-0.6,0.3-0.9c0,0,0-0.1,0-0.1c0-0.3,0.1-0.5,0.4-0.7c0,0,0-0.1,0.1-0.1c0.1-0.3,0.2-0.5,0.4-0.7c0,0,0.1-0.1,0.1-0.1
					c0.1-0.2,0.2-0.4,0.3-0.6c0,0,0.1-0.1,0.1-0.1c0-0.2,0.2-0.4,0.3-0.5c0,0,0.1-0.1,0.1-0.1c0.1-0.2,0.2-0.4,0.3-0.5
					c0,0,0.1-0.1,0.1-0.1c0.1-0.2,0.2-0.4,0.4-0.5C23.1,14.9,23.2,14.9,23.2,14.9z"/>
			</defs>
			<clipPath id="SVGID_5_">
				<use xlink:href="#SVGID_4_"  overflow="visible"/>
			</clipPath>
			<path clip-path="url(#SVGID_5_)" fill="#606060" d="M20.2,30.2"/>
		</g>
		<g>
			<defs>
				<path id="SVGID_6_" d="M23.2,14.9c0.2,0.2,0.1,0.4,0,0.5c-0.1,0.2-0.2,0.4-0.3,0.6c-0.2,0.3-0.3,0.6-0.5,0.8
					c-0.1,0.1-0.2,0.2-0.2,0.3c-0.1,0.2-0.2,0.3-0.3,0.4c-0.1,0.1-0.1,0.1-0.1,0.2c0,0.2-0.2,0.4-0.3,0.6c-0.1,0.1-0.1,0.1-0.1,0.2
					c0,0.3-0.1,0.5-0.3,0.7c0,0-0.1,0.1-0.1,0.2c0,0.3-0.1,0.6-0.3,0.8c0,0-0.1,0.1-0.1,0.2c0,0.3-0.1,0.6-0.3,0.8
					c0,0-0.1,0.1-0.1,0.1c0,0.3-0.1,0.6-0.3,0.8c0,0.1-0.1,0.1-0.1,0.2c0,0.2,0,0.4-0.1,0.5c-0.1,0.1-0.1,0.2-0.1,0.4
					c0,0.1,0,0.1,0,0.2c0,0.1,0,0.2,0.1,0.2c0.1,0,0.1,0.1,0.2,0.2c0.1,0.3,0.1,0.6,0,0.9c0,0.1-0.1,0.2-0.2,0.2
					c-0.1,0-0.1,0.1-0.1,0.1c0.1,0.8,0.2,1.6,0.2,2.4c0.1,0.9,0.2,1.7,0.2,2.6c0,0.7-0.1,1.4-0.3,2c-0.3,1.1-0.9,1.9-2,2.3
					c0,0,0,0,0,0c0.1,0.1,0.1,0.1,0.2,0.1c0.3,0.1,0.5,0.3,0.7,0.4c0.1,0.1,0.1,0.1,0.2,0c1-0.5,2-1,3.1-1.3
					c0.3-0.1,0.6-0.2,0.9-0.2c0.1,0,0.1,0,0.2,0c0.1,0,0.2,0,0.2-0.1c0.2-0.7,0.4-1.3,0.5-2c0.1-0.6,0.3-1.2,0.6-1.8
					c0.1-0.3,0.3-0.5,0.6-0.7c0.1,0,0.1-0.1,0.1-0.2c0.1-0.3,0.1-0.5,0.3-0.7c0.1-0.2,0.3-0.3,0.5-0.3c0.1,0,0.1,0,0.2-0.1
					c0.3-0.2,0.4-0.5,0.4-0.9c0-0.2,0-0.4,0-0.6c0-0.1,0-0.1,0.1-0.2c0.1,0,0.1,0,0.2,0.1c0.3,0.7,0.7,1.3,1.3,1.7c0,0,0,0,0.1,0
					c0,0,0,0.1,0,0.1c0,0.1-0.1,0-0.1,0c-0.2-0.1-0.4-0.2-0.7-0.2c-0.2,0-0.5,0-0.7,0.2c-0.1,0-0.1,0.1-0.1,0.2
					c0.1,0.2,0,0.4-0.1,0.5c-0.1,0.1-0.3,0.2-0.5,0.3C26,29,26,29,26,29.1c0.3,0.2,0.3,0.4,0.1,0.7c-0.2,0.3-0.5,0.6-0.7,0.9
					c-0.5,0.6-0.7,1.2-0.8,2c0,0.4-0.1,0.7-0.3,1.1c-0.1,0.1-0.2,0.3-0.3,0.4c-0.4,0.2-0.7,0.5-1,0.7c-0.8,0.5-1.6,0.8-2.5,1.2
					c-0.4,0.1-0.7,0.3-1.1,0.4c-0.1,0-0.1,0-0.1,0.1c-0.2,0.4-0.5,0.7-0.9,0.9c-0.2,0.1-0.2,0.1,0,0.2c0.2,0.2,0.5,0.2,0.7,0.2
					c0.4,0,0.7,0,1.1,0c0.5,0,1,0,1.5,0.1c0.5,0.1,0.9,0.3,1.3,0.6c0.6,0.5,1.1,1.1,1.5,1.8c0.3,0.5,0.6,1.1,0.9,1.6
					c0.2,0.4,0.5,0.7,0.8,1c0.1,0.1,0.1,0.2,0.2,0.3c0.1,0.1,0.1,0.2,0,0.3c0,0.1,0,0.1,0.1,0.2c0.1,0.1,0.2,0.1,0.3,0.2
					c0.1,0.1,0.3,0.1,0.4,0.2c0.1,0.1,0.2,0.2,0.2,0.3c0,0.1,0,0.1,0.1,0.1c0.8,0.3,1.4,0.8,1.7,1.6c0,0.1,0.1,0.1,0,0.2
					c-0.1,0-0.1,0-0.2,0c-0.1-0.1-0.2-0.2-0.4-0.3c-0.3-0.2-0.6-0.1-0.7,0.2c-0.1,0.2-0.2,0.5-0.2,0.8c0,0,0,0.1,0,0.1
					c0,0.1-0.1,0.1-0.1,0.1c-0.1,0-0.1-0.1-0.1-0.1c0-0.2,0-0.4,0.1-0.7c0-0.4,0-0.8-0.2-1.1c0-0.1-0.1-0.1-0.1-0.2
					c-0.1-0.1-0.1-0.1-0.2-0.1c-0.1,0.1-0.2,0-0.3,0c-0.2-0.1-0.3-0.2-0.5-0.3c-0.2-0.2-0.4-0.4-0.6-0.5c-0.2-0.1-0.2-0.3-0.3-0.4
					c-0.1-0.4-0.3-0.8-0.4-1.2c-0.4-1.1-0.9-2.1-1.7-2.9c-0.2-0.2-0.4-0.4-0.6-0.5c-0.1-0.1-0.2-0.1-0.3-0.1
					c-0.4,0.1-0.8,0.2-1.2,0.2c-0.7,0-1.4,0-2,0c-0.1,0-0.2,0-0.3,0.1c-0.2,0.3-0.5,0.4-0.7,0.6c-0.1,0-0.1,0.1-0.2,0.1
					c0.2,0.1,0.3,0.1,0.4,0.1c0.4,0.1,0.7,0.3,1,0.6c0.2,0.2,0.3,0.3,0.4,0.6c0,0.1,0.1,0.1,0.1,0.2c0.4,0.3,0.8,0.5,1.2,0.7
					c0.5,0.3,1,0.5,1.6,0.8c0.6,0.2,0.9,0.7,1,1.3c0.1,0.5,0.2,1,0.3,1.5c0.2,0.7,0.5,1.4,0.8,2c0.1,0.3,0.3,0.6,0.4,0.9
					c0.1,0.2,0.1,0.3,0,0.5c-0.1,0,0,0.1,0,0.2c0.1,0.2,0.2,0.3,0.3,0.4c0.1,0.1,0.2,0.3,0.2,0.4c0,0,0,0,0,0.1
					c-0.1,0.2,0,0.2,0.1,0.3c0.5,0.4,0.8,1,0.8,1.7c0,0.1,0,0.2,0,0.3c0,0.1,0,0.1-0.1,0.2c-0.1,0-0.1,0-0.2-0.1
					c-0.1-0.2-0.1-0.3-0.2-0.5c0,0,0,0,0,0c-0.2-0.4-0.4-0.5-0.8-0.1c-0.1,0.1-0.2,0.3-0.3,0.4c0,0,0,0.1-0.1,0.1
					c-0.1,0-0.1,0-0.1-0.1c0,0,0-0.1,0-0.1c0.2-0.3,0.4-0.7,0.5-1.1c0-0.1,0-0.3,0-0.4c0-0.1-0.1-0.2-0.3-0.2
					c-0.2,0-0.3-0.1-0.3-0.3c-0.1-0.2-0.2-0.5-0.3-0.7c0-0.1-0.1-0.2-0.2-0.1c-0.1,0-0.2,0-0.3-0.2c0-0.2-0.1-0.4-0.1-0.5
					c0-0.5,0-1-0.1-1.6c-0.1-0.8-0.4-1.6-0.8-2.3c-0.2-0.4-0.5-0.7-0.8-1c0,0-0.1-0.1-0.2-0.1c-0.4,0-0.8-0.2-1.1-0.3
					c-0.5-0.2-0.9-0.4-1.4-0.7c-0.2-0.1-0.2,0.1-0.3,0.1c-0.1,0.1,0,0.1,0,0.2c0.3,0.4,0.6,0.9,0.7,1.4c0,0.1,0,0.1,0.1,0.2
					c0.4,0.6,0.6,1.2,0.6,1.9c0,0.1,0,0.1,0,0.2c0.3,0.7,0.4,1.3,0.4,2.1c0,0.4,0,0.7,0,1.1c0.1,0.8-0.1,1.5-0.4,2.2
					c0,0.1-0.1,0.2,0,0.2c0,0.4,0,0.7-0.1,1.1c-0.1,0.3-0.2,0.6-0.5,0.8c-0.4,0.4-0.7,0.8-1,1.3c-0.3,0.4-0.6,0.8-1,1.1
					c-0.7,0.6-1.5,0.6-2.2,0c-0.6-0.4-1-1-1.4-1.5c-0.1-0.2-0.3-0.3-0.5-0.5c-0.6-0.5-0.9-1.1-0.9-1.8c0-0.2,0-0.3-0.1-0.5
					c-0.5-0.8-0.7-1.6-0.6-2.4c0-0.3,0-0.5-0.1-0.8c-0.1-0.7-0.1-1.4,0.2-2c0-0.1,0-0.1,0-0.2c0-0.7,0.1-1.3,0.4-1.9
					c0-0.1,0.1-0.2,0.1-0.3c0.1-0.5,0.2-0.9,0.5-1.4c0.1-0.2,0.1-0.3-0.1-0.4c-0.1,0-0.1,0-0.1,0c-0.4,0.3-0.9,0.6-1.3,0.8
					c-0.4,0.2-0.7,0.3-1.1,0.4c-0.1,0-0.1,0-0.2,0.1c-0.5,0.6-0.8,1.3-1,2.1c-0.1,0.4-0.2,0.9-0.2,1.3c0,0.6,0,1.1,0.1,1.7
					c0,0.2,0,0.3,0,0.5C9.3,50,9.2,50.1,9,50c-0.1,0-0.1,0-0.1,0.1c-0.1,0.3-0.1,0.6-0.3,0.8c-0.1,0.2-0.2,0.3-0.4,0.3
					c-0.1,0-0.1,0-0.1,0.1c-0.1,0.2-0.1,0.3,0,0.5c0.1,0.3,0.3,0.6,0.5,0.9c0,0.1,0.1,0.1,0.1,0.1c0,0,0.1,0.1,0,0.1
					c-0.1,0-0.1,0.1-0.2,0c-0.2-0.2-0.3-0.4-0.6-0.6c-0.2-0.2-0.4-0.1-0.6,0.1c-0.1,0.2-0.2,0.4-0.2,0.6c0,0,0,0.1,0,0.1
					c0,0.1-0.1,0.1-0.1,0.1c-0.1,0-0.1,0-0.1-0.1c-0.1-0.8,0.1-1.6,0.7-2.2c0.1-0.1,0.1-0.1,0.1-0.3c-0.1-0.1,0-0.3,0-0.4
					C7.8,50.3,7.9,50.2,8,50c0.1-0.1,0.1-0.2,0-0.4c-0.1-0.1,0-0.2,0-0.3c0-0.3,0.2-0.5,0.3-0.8c0.3-0.6,0.5-1.3,0.6-2
					C9,46,9,45.5,9.1,44.9c0-0.2,0.1-0.4,0.1-0.6c0.1-0.4,0.4-0.7,0.8-0.9c0.7-0.4,1.3-0.8,1.9-1.2c0.3-0.2,0.6-0.4,0.8-0.6
					c0,0,0.1-0.1,0.1-0.1c0.2-0.5,0.6-0.8,1-1.1c0.2-0.1,0.4-0.2,0.7-0.3c-0.2-0.1-0.4-0.2-0.5-0.3c-0.2-0.1-0.3-0.2-0.5-0.4
					c-0.1-0.1-0.1-0.1-0.2-0.1c-0.9,0.1-1.8,0.2-2.6,0.2c-0.2,0-0.5,0-0.7-0.1c-0.1,0-0.1,0-0.2,0.1c-0.8,0.8-1.4,1.7-1.8,2.8
					c-0.2,0.6-0.3,1.2-0.5,1.7c0,0.1-0.1,0.3-0.1,0.4C7.3,44.8,7.2,44.9,7,45C7,45,7,45,6.9,45.1c-0.2,0.2-0.4,0.4-0.6,0.6
					c-0.2,0.1-0.3,0.2-0.6,0.1c-0.1,0-0.1,0-0.2,0.1c-0.1,0.1-0.1,0.3-0.2,0.4c-0.1,0.3,0,0.7,0,1c0,0.2,0.1,0.4,0.1,0.6
					c0,0.1,0.1,0.2,0,0.2c-0.1,0-0.2-0.1-0.2-0.2c-0.1-0.3-0.1-0.5-0.3-0.8c-0.2-0.3-0.4-0.3-0.7-0.1c-0.1,0.1-0.2,0.2-0.3,0.2
					C4,47.2,4,47.3,3.9,47.3c0,0.1-0.1,0-0.2,0c-0.1,0,0-0.1,0-0.1c0.3-0.8,0.8-1.4,1.6-1.8c0.1,0,0.1-0.1,0.1-0.2
					c0-0.2,0.1-0.3,0.2-0.3c0.1-0.1,0.2-0.1,0.3-0.2c0.1-0.1,0.2-0.1,0.3-0.2c0,0,0.1-0.1,0-0.1c-0.1-0.2,0-0.3,0-0.4
					c0.1-0.1,0.2-0.3,0.3-0.4c0.4-0.5,0.6-1,0.9-1.5c0.4-0.8,0.7-1.6,1.3-2.4c0.6-0.8,1.3-1.3,2.2-1.4c0.6-0.1,1.3-0.1,1.9-0.2
					c0.2,0,0.4,0,0.6,0c0.1,0,0.1,0,0.2-0.1c0.1-0.1,0.2-0.2,0.4-0.3c0.1-0.1,0.1-0.1,0-0.1c-0.2-0.1-0.5-0.2-0.7-0.4
					c-0.1-0.1-0.3-0.2-0.3-0.4c-0.1-0.1-0.1-0.1-0.2-0.2c-0.6-0.1-1.1-0.3-1.7-0.5c-1-0.3-1.9-0.7-2.8-1.2C8.1,34.9,8,34.9,8,34.8
					c-0.3-0.2-0.5-0.5-0.6-0.8c-0.1-0.3-0.2-0.7-0.3-1c-0.1-0.5-0.4-1-0.8-1.4C6,31.2,5.7,31,5.4,30.7c-0.2-0.3-0.2-0.4,0-0.7
					c0.1-0.1,0-0.1,0-0.1c-0.1-0.1-0.3-0.1-0.4-0.2c-0.3-0.2-0.3-0.3-0.3-0.6c0-0.1,0-0.1-0.1-0.1c-0.4-0.2-0.7-0.2-1.1,0
					c-0.1,0.1-0.2,0.1-0.3,0.2c0-0.1,0-0.1,0-0.2c0.6-0.5,0.9-1.1,1.2-1.8c0-0.1,0-0.2,0.1-0.2c0.1,0,0.1,0.1,0.1,0.2
					c0,0.1,0,0.2,0,0.4c0,0.3,0.1,0.6,0.3,0.9c0.1,0.1,0.2,0.2,0.3,0.2c0.2,0,0.4,0.1,0.5,0.2C5.9,29,6,29.2,6,29.3
					c0.1,0.2,0.1,0.3,0.3,0.4c0,0,0,0,0.1,0.1c0.4,0.3,0.6,0.8,0.8,1.2C7.5,31.7,7.7,32.3,8,33c0.1,0.4,0.3,0.7,0.4,1.1
					c0,0,0,0.1,0.1,0.1c0.5-0.1,1,0.1,1.4,0.2c1,0.3,2.1,0.6,3.1,1c0.1,0,0.1,0,0.2,0c0.2-0.2,0.4-0.4,0.6-0.5
					c0.1-0.1,0.2-0.1,0.3-0.2c0,0,0,0-0.1,0c-1.1-0.4-1.8-1.1-2.2-2.2c-0.3-0.9-0.4-1.8-0.5-2.8c0-0.8,0-1.7,0.1-2.5
					c0-0.2,0-0.5,0-0.7c0-0.4,0-0.8,0.1-1.2c0,0,0-0.1,0-0.1c-0.2-0.2-0.3-0.5-0.2-0.8c0-0.2,0.1-0.4,0.2-0.5
					c0.2-0.2,0.2-0.4,0.1-0.6c-0.1-0.2-0.2-0.4-0.2-0.6c0-0.1,0-0.1-0.1-0.1c-0.2-0.2-0.3-0.5-0.3-0.8c0-0.1,0-0.2-0.1-0.2
					c-0.2-0.2-0.3-0.5-0.3-0.8c0-0.1,0-0.1-0.1-0.2c-0.2-0.2-0.3-0.4-0.3-0.7c0-0.1,0-0.1-0.1-0.2c-0.2-0.1-0.3-0.3-0.3-0.6
					c0-0.1-0.1-0.2-0.2-0.3c-0.1-0.1-0.2-0.1-0.2-0.2c-0.1-0.3-0.3-0.5-0.5-0.7c-0.1-0.2-0.2-0.4-0.4-0.6c-0.1-0.1-0.1-0.1-0.1-0.2
					C8.1,17,8,16.9,8,16.9c-0.2-0.1-0.3-0.3-0.4-0.5c0-0.1-0.1-0.1-0.1-0.2c-0.2-0.1-0.2-0.3-0.3-0.5c0-0.1,0-0.2,0.1-0.2
					c0.1,0,0.1,0,0.2,0c0.2,0.1,0.3,0.2,0.4,0.4c0,0.1,0.1,0.1,0.1,0.2c0.1,0.1,0.2,0.2,0.3,0.3c0.1,0.2,0.3,0.3,0.4,0.5
					c0.2,0.3,0.4,0.5,0.6,0.8c0,0.1,0.1,0.1,0.1,0.2c0,0.1,0.1,0.1,0.1,0.1c0.2,0.2,0.4,0.4,0.5,0.6c0,0,0,0.1,0.1,0.1
					c0.2,0.2,0.4,0.4,0.4,0.7c0,0.1,0,0.1,0.1,0.2c0.2,0.2,0.3,0.4,0.4,0.7c0,0.1,0,0.2,0.1,0.2c0.2,0.2,0.4,0.5,0.4,0.8
					c0,0.1,0,0.1,0.1,0.1c0.1,0.1,0.2,0.2,0.3,0.3c0.1,0.1,0.1,0.3,0.1,0.5c0,0.1,0,0.1,0.1,0.1c0.1,0,0.1,0,0.1-0.1
					c0.1-0.2,0.2-0.3,0.3-0.4c0,0,0.1-0.1,0-0.1c0-0.1-0.1-0.3-0.1-0.4c-0.2-0.9-0.4-1.7-0.4-2.7c0.1-0.6,0.3-1.2,0.7-1.8
					c0.4-0.5,0.8-0.8,1.4-1.1c0,0,0.1-0.1,0.1,0c0,0,0,0.1,0,0.1c-0.1,0.2-0.2,0.4-0.3,0.7c-0.1,0.3-0.3,0.6-0.3,0.9
					c0,0.2,0,0.4,0.1,0.5c0.1,0.2,0.3,0.3,0.5,0.3c0.1,0,0.1,0.1,0,0.1c-0.2,0.2-0.3,0.4-0.4,0.6c-0.1,0.2,0,0.4,0.1,0.6
					c0,0,0.1,0.1,0.1,0.1c0.1,0.1,0.1,0.1,0,0.2c-0.1,0.1-0.1,0.2-0.1,0.3c-0.1,0.3-0.1,0.7,0.2,0.9c0.1,0.1,0.4,0.1,0.4-0.1
					c0.1-0.2,0.1-0.4,0.2-0.6c0.1-0.2,0.1-0.4,0.3-0.5c0,0,0.1-0.1,0.1-0.1c0.1,0,0.1,0.1,0.1,0.1c0,0.1,0,0.3,0,0.4
					c0,0.2,0,0.5-0.1,0.7c0,0,0,0.1,0,0.1c0,0,0.1,0,0.1,0c0.1-0.1,0.1-0.2,0.2-0.2c0.2-0.3,0.5-0.3,0.8,0c0.1,0.1,0.2,0.2,0.4,0.3
					c0-0.1-0.1-0.2-0.1-0.3C16.1,20.6,16,20.3,16,20c0-0.1,0-0.2,0.1-0.2c0.1,0,0.1,0,0.2,0.1c0.1,0.1,0.2,0.3,0.3,0.4
					c0.1,0.2,0.2,0.4,0.3,0.5c0.1,0.1,0.3,0.2,0.4,0.1c0.2-0.2,0.3-0.5,0.2-0.8c-0.1-0.1-0.1-0.3-0.2-0.4c-0.1-0.1-0.1-0.1,0-0.2
					c0.4-0.2,0.3-0.6,0.1-0.8c-0.1-0.2-0.2-0.3-0.4-0.4c-0.1-0.1-0.1-0.1,0-0.1c0.1,0,0.1-0.1,0.2-0.1c0.3-0.2,0.5-0.5,0.4-0.9
					c-0.1-0.2-0.1-0.3-0.2-0.5c-0.2-0.3-0.4-0.6-0.6-1c0,0-0.1-0.1,0-0.1c0,0,0.1,0,0.1,0c0.2,0.1,0.3,0.2,0.5,0.3
					c0.6,0.3,1.1,0.7,1.4,1.3c0.3,0.6,0.4,1.2,0.5,1.9c0,0.8-0.1,1.6-0.3,2.4c0,0.1,0,0.1,0.1,0.2c0.1,0.1,0.3,0.2,0.4,0.3
					c0.1,0.1,0.1,0.1,0.2,0c0,0,0-0.1,0-0.1c0-0.3,0.1-0.6,0.3-0.8c0,0,0-0.1,0-0.1c0-0.3,0.1-0.6,0.3-0.8c0,0,0.1-0.1,0-0.1
					c0-0.3,0.1-0.6,0.3-0.9c0,0,0-0.1,0-0.1c0-0.3,0.1-0.5,0.4-0.7c0,0,0-0.1,0.1-0.1c0.1-0.3,0.2-0.5,0.4-0.7c0,0,0.1-0.1,0.1-0.1
					c0.1-0.2,0.2-0.4,0.3-0.6c0,0,0.1-0.1,0.1-0.1c0-0.2,0.2-0.4,0.3-0.5c0,0,0.1-0.1,0.1-0.1c0.1-0.2,0.2-0.4,0.3-0.5
					c0,0,0.1-0.1,0.1-0.1c0.1-0.2,0.2-0.4,0.4-0.5C23.1,14.9,23.2,14.9,23.2,14.9z"/>
			</defs>
			<clipPath id="SVGID_7_">
				<use xlink:href="#SVGID_6_"  overflow="visible"/>
			</clipPath>
			<g opacity="0.3" clip-path="url(#SVGID_7_)">
				<g>
					<path d="M11.4,32.1c-0.1-0.3-0.1-0.6-0.1-1c0-0.4,0-0.8-0.1-1.2c0-0.1,0-0.2,0.1-0.2c0.5-0.5,1-0.9,1.5-1.2
						c0.7-0.4,1.5-0.7,2.3-0.9c0.4-0.1,0.8-0.1,1.2-0.2c0.6,0,1.2,0,1.7,0.1c0.4,0,0.7,0.1,1,0.2c0.6,0.1,1.2,0.4,1.7,0.7
						c0.3,0.2,0.7,0.4,1,0.8c-0.3-0.1-0.5-0.2-0.7-0.3c-0.5-0.2-1-0.4-1.5-0.5c-0.5-0.1-1.1-0.2-1.6-0.2c-0.4,0-0.8,0-1.1,0.1
						c-0.6,0.1-1.1,0.2-1.6,0.4c-0.7,0.3-1.4,0.6-2,1.1c-0.2,0.1-0.3,0.3-0.5,0.4c-0.4,0.3-0.7,0.7-1,1.1
						C11.7,31.6,11.5,31.8,11.4,32.1z"/>
				</g>
			</g>
		</g>
	</g>
</g>
<g id="Layer_5">
	<g>
		
			<linearGradient id="SVGID_8_" gradientUnits="userSpaceOnUse" x1="53.3605" y1="-69.6939" x2="53.3605" y2="50.991" gradientTransform="matrix(0.2862 0 0 -0.2862 0 35.1415)">
			<stop  offset="0" style="stop-color:#9F0C01"/>
			<stop  offset="1" style="stop-color:#C80E00"/>
		</linearGradient>
		<path fill="url(#SVGID_8_)" d="M0.6,38.6c0-0.5,0-1,0-1.5c0-0.1,0-0.1,0-0.2c0-0.5,0-1,0.1-1.5c0.1-1.4,0.3-2.7,0.7-4
			c0.6-2,1.4-3.9,2.7-5.6c1.3-1.7,2.9-3.1,4.9-4c1.7-0.8,3.6-1.1,5.5-1.2c0.3,0,0.6,0,0.9-0.1c0.6,0,1.2,0,1.7,0c0.3,0,0.6,0,1,0.1
			c1.1,0.1,2.2,0.2,3.2,0.4c2.6,0.5,4.6,1.8,6.1,4c0.9,1.3,1.5,2.8,1.9,4.3c0.1,0.2,0.1,0.5,0.2,0.7c-2.9,0.6-5.7,1.2-8.6,1.8
			c-0.1-0.4-0.3-0.7-0.4-1c-0.5-1.2-1.4-2.1-2.6-2.5c-0.8-0.3-1.7-0.4-2.6-0.3c-1,0.1-2,0.4-2.8,1c-1.1,0.8-1.8,1.9-2.2,3.1
			c-0.5,1.3-0.7,2.7-0.8,4.1c-0.1,1.8-0.1,3.6,0.2,5.4c0.2,1,0.4,2,0.9,2.9c0.8,1.5,1.9,2.6,3.6,3.1c1.6,0.4,3.2,0.3,4.8-0.3
			c1.1-0.4,2.1-1,3-1.7c0,0,0.1-0.1,0.1-0.2c0-1,0-1.9,0-2.9c0,0,0-0.1,0-0.1c-3.5,0-6.9,0-10.4,0c0-2.3,0-4.6,0-6.9
			c6.1,0,12.1,0,18.2,0c0,0.1,0,0.1,0,0.2c0,1.4,0,2.8,0,4.2c0,3.2,0,6.5,0,9.7c0,0.1,0,0.1-0.1,0.2c-1.2,1-2.5,1.9-3.8,2.7
			c-2.4,1.5-5,2.3-7.8,2.5c-1.2,0.1-2.4,0.1-3.5,0.1c-1.2-0.1-2.5-0.2-3.7-0.5c-1.7-0.4-3.3-1.1-4.6-2.2c-1.6-1.3-2.8-2.8-3.7-4.6
			c-1.3-2.6-1.9-5.3-2.1-8.2C0.7,39.2,0.6,38.9,0.6,38.6z"/>
		<path fill="none" d="M0.6,38.6c0,0.3,0,0.6,0.1,1c0.2,2.9,0.8,5.6,2.1,8.2c0.9,1.8,2.1,3.4,3.7,4.6c1.4,1.1,2.9,1.8,4.6,2.2
			c1.2,0.3,2.4,0.4,3.7,0.5c1.2,0.1,2.4,0,3.5-0.1c2.8-0.2,5.4-1.1,7.8-2.5c1.3-0.8,2.6-1.7,3.8-2.7c0.1-0.1,0.1-0.1,0.1-0.2
			c0-3.2,0-6.5,0-9.7c0-1.4,0-2.8,0-4.2c0-0.1,0-0.1,0-0.2c-6.1,0-12.1,0-18.2,0c0,2.3,0,4.6,0,6.9c3.5,0,6.9,0,10.4,0
			c0,0.1,0,0.1,0,0.1c0,1,0,1.9,0,2.9c0,0.1,0,0.1-0.1,0.2c-0.9,0.6-1.9,1.3-3,1.7c-1.6,0.6-3.2,0.7-4.8,0.3
			c-1.7-0.5-2.8-1.5-3.6-3.1c-0.5-0.9-0.7-1.9-0.9-2.9c-0.3-1.8-0.3-3.6-0.2-5.4c0.1-1.4,0.3-2.8,0.8-4.1c0.4-1.2,1.1-2.3,2.2-3.1
			c0.8-0.6,1.8-1,2.8-1c0.9-0.1,1.7,0,2.6,0.3c1.2,0.5,2.1,1.3,2.6,2.5c0.2,0.3,0.3,0.7,0.4,1c2.8-0.6,5.7-1.2,8.6-1.8
			c-0.1-0.2-0.1-0.5-0.2-0.7c-0.4-1.5-1-3-1.9-4.3c-1.5-2.2-3.5-3.5-6.1-4c-1.1-0.2-2.2-0.3-3.2-0.4c-0.3,0-0.6,0-1-0.1
			c4.3,0,8.6,0,12.9,0c0,11.5,0,23,0,34.6c-9.8,0-19.6,0-29.4,0C0.6,49.6,0.6,44.1,0.6,38.6z"/>
		<path fill="none" d="M15.3,20.5c-0.3,0-0.6,0-0.9,0.1c-1.9,0.1-3.7,0.4-5.5,1.2c-2,0.9-3.6,2.3-4.9,4c-1.3,1.7-2.1,3.6-2.7,5.6
			c-0.4,1.3-0.6,2.7-0.7,4c0,0.5-0.1,1-0.1,1.5c0,0.1,0,0.1,0,0.2c0-5.5,0-11,0-16.5C5.5,20.5,10.4,20.5,15.3,20.5z"/>
	</g>
</g>
<g id="Termite_top">
	<g>
		<g>
			<path fill="#AF8A62" d="M11.6,42.5c-0.5,0.3-1.1,0.7-1.6,1c-0.4,0.2-0.7,0.5-0.8,0.9c0,0.2-0.1,0.4-0.1,0.6C9,45.5,9,46,8.9,46.6
				c-0.1,0.7-0.4,1.3-0.6,2C8.1,48.8,8,49.1,8,49.4c0,0.1-0.1,0.2,0,0.3c0.1,0.1,0.1,0.2,0,0.4c-0.1,0.2-0.2,0.3-0.3,0.5
				c-0.1,0.1-0.1,0.3,0,0.4c0.1,0.1,0,0.2-0.1,0.3C7,51.8,6.9,52.5,7,53.3c0,0.1,0,0.1,0.1,0.1c0.1,0,0.1,0,0.1-0.1c0,0,0-0.1,0-0.1
				c0.1-0.2,0.1-0.4,0.2-0.6c0.2-0.3,0.3-0.3,0.6-0.1c0.2,0.2,0.4,0.4,0.6,0.6c0.1,0.1,0.1,0.1,0.2,0c0.1,0,0-0.1,0-0.1
				c0-0.1-0.1-0.1-0.1-0.1c-0.2-0.3-0.4-0.6-0.5-0.9c-0.1-0.2-0.1-0.3,0-0.5c0,0,0-0.1,0.1-0.1c0.2,0,0.3-0.2,0.4-0.3
				c0.1-0.3,0.2-0.5,0.3-0.8C8.9,50.1,9,50,9,50c0.2,0,0.3-0.1,0.3-0.3c0-0.2,0-0.3,0-0.5c0-0.6-0.1-1.1-0.1-1.7
				c0-0.4,0.1-0.9,0.2-1.3c0.2-0.8,0.6-1.4,1-2.1c0-0.1,0.1-0.1,0.2-0.1c0.4-0.1,0.8-0.2,1.1-0.4c0.3-0.2,0.6-0.4,0.9-0.5
				C12.1,43,11.7,42.8,11.6,42.5z"/>
			<path fill="#AF8A62" d="M21.1,48.7c0.1-0.7,0-1.4-0.4-2.1c0-0.1,0-0.1,0-0.2c0-0.7-0.2-1.3-0.6-1.9c0-0.1-0.1-0.1-0.1-0.2
				c-0.1-0.3-0.2-0.6-0.3-0.9c-0.8,0.1-1.7,0.2-2.8,0.2c-1.4,0-2.6-0.1-3.5-0.4c-0.2,0.4-0.4,0.8-0.4,1.3c0,0.1,0,0.2-0.1,0.3
				c-0.3,0.6-0.5,1.2-0.4,1.9c0,0.1,0,0.1,0,0.2c-0.3,0.7-0.3,1.3-0.2,2c0,0.3,0.1,0.5,0.1,0.8c0,0.9,0.2,1.7,0.6,2.4
				c0.1,0.1,0.1,0.3,0.1,0.5c0.1,0.7,0.3,1.4,0.9,1.8c0.2,0.1,0.3,0.3,0.5,0.5c0.4,0.6,0.9,1.1,1.4,1.5c0.7,0.5,1.5,0.6,2.2,0
				c0.4-0.3,0.7-0.7,1-1.1c0.3-0.4,0.6-0.9,1-1.3c0.2-0.2,0.4-0.5,0.5-0.8c0.1-0.3,0.1-0.7,0.1-1.1c0-0.1,0-0.2,0-0.2
				c0.3-0.7,0.5-1.4,0.4-2.2C21.1,49.5,21,49.1,21.1,48.7z"/>
			<path fill="#AF8A62" d="M26.7,52.4c0-0.1,0-0.2,0-0.3c-0.1-0.7-0.3-1.2-0.8-1.7c-0.1-0.1-0.2-0.2-0.1-0.3c0,0,0,0,0-0.1
				c0-0.2-0.1-0.3-0.2-0.4c-0.1-0.1-0.2-0.3-0.3-0.4c0-0.1-0.1-0.1,0-0.2c0.2-0.1,0.1-0.3,0-0.5c-0.1-0.3-0.3-0.6-0.4-0.9
				c-0.3-0.6-0.6-1.3-0.8-2c-0.1-0.5-0.2-1-0.3-1.5c-0.2-0.6-0.4-1.1-1-1.3c-0.2-0.1-0.4-0.2-0.6-0.3c-0.2,0.2-0.7,0.5-1.3,0.7
				c0.1,0,0.1,0.1,0.2,0.1c0.4,0.1,0.7,0.3,1.1,0.3c0.1,0,0.1,0,0.2,0.1c0.3,0.3,0.6,0.7,0.8,1c0.4,0.7,0.7,1.5,0.8,2.3
				c0.1,0.5,0.1,1,0.1,1.6c0,0.2,0,0.4,0.1,0.5c0,0.2,0.1,0.2,0.3,0.2c0.1,0,0.2,0,0.2,0.1c0.1,0.3,0.2,0.5,0.3,0.7
				c0.1,0.1,0.2,0.3,0.3,0.3c0.2,0,0.2,0.1,0.3,0.2c0,0.1,0,0.3,0,0.4c-0.1,0.4-0.3,0.7-0.5,1.1c0,0-0.1,0.1,0,0.1
				c0,0,0.1,0.1,0.1,0.1c0.1,0,0.1-0.1,0.1-0.1c0.1-0.2,0.2-0.3,0.3-0.4c0.4-0.4,0.6-0.3,0.8,0.1c0,0,0,0,0,0
				c0.1,0.2,0.1,0.3,0.2,0.5c0,0.1,0.1,0.1,0.2,0.1C26.7,52.6,26.7,52.5,26.7,52.4z"/>
		</g>
		<path fill="#AF8A62" d="M11.2,38.2c-0.1,0-0.2,0-0.2,0c-1,0.1-1.7,0.7-2.2,1.4c-0.5,0.7-0.9,1.5-1.3,2.4c-0.2,0.5-0.5,1.1-0.9,1.5
			c-0.1,0.1-0.2,0.3-0.3,0.4c-0.1,0.1-0.2,0.3,0,0.4c0,0,0,0.1,0,0.1c-0.1,0.1-0.2,0.2-0.3,0.2c-0.1,0.1-0.2,0.1-0.3,0.2
			c-0.1,0.1-0.2,0.2-0.2,0.3c0,0.1,0,0.1-0.1,0.2c-0.8,0.3-1.3,1-1.6,1.8c0,0,0,0.1,0,0.1c0.1,0,0.1,0,0.2,0C4,47.3,4,47.2,4.1,47.2
			c0.1-0.1,0.2-0.2,0.3-0.2C4.6,46.7,4.8,46.8,5,47c0.2,0.2,0.2,0.5,0.3,0.8c0,0.1,0,0.2,0.2,0.2c0.1,0,0-0.1,0-0.2
			c0-0.2-0.1-0.4-0.1-0.6c0-0.3-0.1-0.7,0-1c0-0.1,0.1-0.3,0.2-0.4c0,0,0.1-0.1,0.2-0.1c0.2,0.1,0.4,0,0.6-0.1
			c0.2-0.2,0.4-0.4,0.6-0.6C7,45,7,45,7,45c0.2,0,0.2-0.2,0.3-0.3c0.1-0.1,0.1-0.3,0.1-0.4c0.1-0.6,0.3-1.2,0.5-1.7
			c0.4-1.1,1-2,1.8-2.8c0.1-0.1,0.1-0.1,0.2-0.1c0.2,0.1,0.5,0.1,0.7,0.1c0.2,0,0.4,0,0.5,0C11.2,39.2,11.2,38.7,11.2,38.2z"/>
		<path fill="#AF8A62" d="M11.2,35.6c0-0.3,0-0.6,0.1-0.8c-0.5-0.2-0.9-0.3-1.4-0.4c-0.5-0.1-0.9-0.3-1.4-0.2
			c-0.1,0-0.1-0.1-0.1-0.1C8.2,33.7,8.1,33.3,8,33c-0.2-0.6-0.4-1.3-0.7-1.9c-0.2-0.5-0.4-0.9-0.8-1.2c0,0,0,0-0.1-0.1
			c-0.2-0.1-0.3-0.3-0.3-0.4C6,29.2,5.9,29,5.7,28.8c-0.1-0.2-0.3-0.3-0.5-0.2c-0.2,0-0.3-0.1-0.3-0.2c-0.2-0.2-0.3-0.5-0.3-0.9
			c0-0.1,0-0.2,0-0.4c0-0.1,0-0.2-0.1-0.2c-0.1,0,0,0.1-0.1,0.2c-0.2,0.7-0.8,1.3-1.1,1.8v0.2c0-0.1,0.1-0.1,0.2-0.2
			c0.4-0.2,0.7-0.3,1.1,0c0.1,0,0.1,0.1,0.1,0.1c-0.1,0.3,0,0.4,0.3,0.6c0.1,0.1,0.3,0.1,0.4,0.2c0.1,0,0.1,0.1,0,0.1
			c-0.2,0.3-0.2,0.4,0,0.7C5.7,31,6,31.2,6.2,31.6C6.6,32,6.9,32.4,7,32.9c0.1,0.3,0.2,0.7,0.3,1c0.1,0.3,0.3,0.6,0.6,0.8
			c0.1,0,0.2,0.1,0.3,0.1c0.9,0.6,1.8,0.9,2.8,1.2c0.1,0,0.2,0,0.2,0.1C11.2,36,11.2,35.8,11.2,35.6z"/>
		<path fill="#AF8A62" d="M28.2,27.9C28.1,27.9,28.1,27.9,28.2,27.9c-0.7-0.5-1.1-1.1-1.4-1.8c0-0.1-0.1-0.1-0.2-0.1
			c-0.1,0-0.1,0.1-0.1,0.2c0,0.2,0.1,0.4,0,0.6c0,0.3-0.1,0.6-0.4,0.9c0,0-0.1,0.1-0.2,0.1c-0.2,0-0.4,0.1-0.5,0.3
			c-0.1,0.2-0.2,0.5-0.3,0.7c0,0.1-0.1,0.1-0.1,0.2c-0.3,0.2-0.4,0.4-0.6,0.7c-0.3,0.6-0.4,1.2-0.6,1.8c-0.2,0.7-0.3,1.3-0.5,2
			c0,0.1-0.1,0.2-0.2,0.1c-0.1,0-0.1,0-0.2,0c-0.3,0-0.6,0.1-0.9,0.2c-0.5,0.2-1,0.4-1.5,0.6c0.6,0.1,1,0.5,1.1,1.1
			c0.4-0.2,0.9-0.4,1.3-0.7c0.3-0.2,0.7-0.5,1-0.7c0.1-0.1,0.2-0.2,0.3-0.4c0.2-0.3,0.3-0.7,0.3-1.1c0.1-0.7,0.3-1.4,0.8-2
			c0.2-0.3,0.5-0.6,0.7-0.9c0.2-0.3,0.2-0.5-0.1-0.7C26,29,26,29,26,29c0.2-0.1,0.3-0.2,0.5-0.3c0.2-0.1,0.2-0.3,0.1-0.5
			c0-0.1,0-0.1,0.1-0.2c0.2-0.1,0.4-0.2,0.7-0.2c0.2,0,0.5,0.1,0.7,0.2c0,0,0.1,0.1,0.1,0C28.2,28,28.2,28,28.2,27.9z"/>
	</g>
</g>
<g id="Layer_7">
</g>
<g id="shadow">
	<g opacity="0.56" enable-background="new    ">
		<g>
			<defs>
				<path id="SVGID_9_" d="M23.2,14.9c0.2,0.2,0.1,0.4,0,0.5c-0.1,0.2-0.2,0.4-0.3,0.6c-0.2,0.3-0.3,0.6-0.5,0.8
					c-0.1,0.1-0.2,0.2-0.2,0.3c-0.1,0.2-0.2,0.3-0.3,0.4c-0.1,0.1-0.1,0.1-0.1,0.2c0,0.2-0.2,0.4-0.3,0.6c-0.1,0.1-0.1,0.1-0.1,0.2
					c0,0.3-0.1,0.5-0.3,0.7c0,0-0.1,0.1-0.1,0.2c0,0.3-0.1,0.6-0.3,0.8c0,0-0.1,0.1-0.1,0.2c0,0.3-0.1,0.6-0.3,0.8
					c0,0-0.1,0.1-0.1,0.1c0,0.3-0.1,0.6-0.3,0.8c0,0.1-0.1,0.1-0.1,0.2c0,0.2,0,0.4-0.1,0.5c-0.1,0.1-0.1,0.2-0.1,0.4
					c0,0.1,0,0.1,0,0.2c0,0.1,0,0.2,0.1,0.2c0.1,0,0.1,0.1,0.2,0.2c0.1,0.3,0.1,0.6,0,0.9c0,0.1-0.1,0.2-0.2,0.2
					c-0.1,0-0.1,0.1-0.1,0.1c0.1,0.8,0.2,1.6,0.2,2.4c0.1,0.9,0.2,1.7,0.2,2.6c0,0.7-0.1,1.4-0.3,2c-0.3,1.1-0.9,1.9-2,2.3
					c0,0,0,0,0,0c0.1,0.1,0.1,0.1,0.2,0.1c0.3,0.1,0.5,0.3,0.7,0.4c0.1,0.1,0.1,0.1,0.2,0c1-0.5,2-1,3.1-1.3
					c0.3-0.1,0.6-0.2,0.9-0.2c0.1,0,0.1,0,0.2,0c0.1,0,0.2,0,0.2-0.1c0.2-0.7,0.4-1.3,0.5-2c0.1-0.6,0.3-1.2,0.6-1.8
					c0.1-0.3,0.3-0.5,0.6-0.7c0.1,0,0.1-0.1,0.1-0.2c0.1-0.3,0.1-0.5,0.3-0.7c0.1-0.2,0.3-0.3,0.5-0.3c0.1,0,0.1,0,0.2-0.1
					c0.3-0.2,0.4-0.5,0.4-0.9c0-0.2,0-0.4,0-0.6c0-0.1,0-0.1,0.1-0.2c0.1,0,0.1,0,0.2,0.1c0.3,0.7,0.7,1.3,1.3,1.7c0,0,0,0,0.1,0
					c0,0,0,0.1,0,0.1c0,0.1-0.1,0-0.1,0c-0.2-0.1-0.4-0.2-0.7-0.2c-0.2,0-0.5,0-0.7,0.2c-0.1,0-0.1,0.1-0.1,0.2
					c0.1,0.2,0,0.4-0.1,0.5c-0.1,0.1-0.3,0.2-0.5,0.3c-0.1,0-0.1,0.1,0,0.1c0.3,0.2,0.3,0.4,0.1,0.7c-0.2,0.3-0.5,0.6-0.7,0.9
					c-0.5,0.6-0.7,1.2-0.8,2c0,0.4-0.1,0.7-0.3,1.1c-0.1,0.1-0.2,0.3-0.3,0.4c-0.4,0.2-0.7,0.5-1,0.7c-0.8,0.5-1.6,0.8-2.5,1.2
					c-0.4,0.1-0.7,0.3-1.1,0.4c-0.1,0-0.1,0-0.1,0.1c-0.2,0.4-0.5,0.7-0.9,0.9c-0.2,0.1-0.2,0.1,0,0.2c0.2,0.2,0.5,0.2,0.7,0.2
					c0.4,0,0.7,0,1.1,0c0.5,0,1,0,1.5,0.1c0.5,0.1,0.9,0.3,1.3,0.6c0.6,0.5,1.1,1.1,1.5,1.8c0.3,0.5,0.6,1.1,0.9,1.6
					c0.2,0.4,0.5,0.7,0.8,1c0.1,0.1,0.1,0.2,0.2,0.3c0.1,0.1,0.1,0.2,0,0.3c0,0.1,0,0.1,0.1,0.2c0.1,0.1,0.2,0.1,0.3,0.2
					c0.1,0.1,0.3,0.1,0.4,0.2c0.1,0.1,0.2,0.2,0.2,0.3c0,0.1,0,0.1,0.1,0.1c0.8,0.3,1.4,0.8,1.7,1.6c0,0.1,0.1,0.1,0,0.2
					c-0.1,0-0.1,0-0.2,0c-0.1-0.1-0.2-0.2-0.4-0.3c-0.3-0.2-0.6-0.1-0.7,0.2c-0.1,0.2-0.2,0.5-0.2,0.8c0,0,0,0.1,0,0.1
					c0,0.1-0.1,0.1-0.1,0.1c-0.1,0-0.1-0.1-0.1-0.1c0-0.2,0-0.4,0.1-0.7c0-0.4,0-0.8-0.2-1.1c0-0.1-0.1-0.1-0.1-0.2
					c-0.1-0.1-0.1-0.1-0.2-0.1c-0.1,0.1-0.2,0-0.3,0c-0.2-0.1-0.3-0.2-0.5-0.3c-0.2-0.2-0.4-0.4-0.6-0.5c-0.2-0.1-0.2-0.3-0.3-0.4
					c-0.1-0.4-0.3-0.8-0.4-1.2c-0.4-1.1-0.9-2.1-1.7-2.9c-0.2-0.2-0.4-0.4-0.6-0.5c-0.1-0.1-0.2-0.1-0.3-0.1
					c-0.4,0.1-0.8,0.2-1.2,0.2c-0.7,0-1.4,0-2,0c-0.1,0-0.2,0-0.3,0.1c-0.2,0.3-0.5,0.4-0.7,0.6c-0.1,0-0.1,0.1-0.2,0.1
					c0.2,0.1,0.3,0.1,0.4,0.1c0.4,0.1,0.7,0.3,1,0.6c0.2,0.2,0.3,0.3,0.4,0.6c0,0.1,0.1,0.1,0.1,0.2c0.4,0.3,0.8,0.5,1.2,0.7
					c0.5,0.3,1,0.5,1.6,0.8c0.6,0.2,0.9,0.7,1,1.3c0.1,0.5,0.2,1,0.3,1.5c0.2,0.7,0.5,1.4,0.8,2c0.1,0.3,0.3,0.6,0.4,0.9
					c0.1,0.2,0.1,0.3,0,0.5c-0.1,0,0,0.1,0,0.2c0.1,0.2,0.2,0.3,0.3,0.4c0.1,0.1,0.2,0.3,0.2,0.4c0,0,0,0,0,0.1
					c-0.1,0.2,0,0.2,0.1,0.3c0.5,0.4,0.8,1,0.8,1.7c0,0.1,0,0.2,0,0.3c0,0.1,0,0.1-0.1,0.2c-0.1,0-0.1,0-0.2-0.1
					c-0.1-0.2-0.1-0.3-0.2-0.5c0,0,0,0,0,0c-0.2-0.4-0.4-0.5-0.8-0.1c-0.1,0.1-0.2,0.3-0.3,0.4c0,0,0,0.1-0.1,0.1
					c-0.1,0-0.1,0-0.1-0.1c0,0,0-0.1,0-0.1c0.2-0.3,0.4-0.7,0.5-1.1c0-0.1,0-0.3,0-0.4c0-0.1-0.1-0.2-0.3-0.2
					c-0.2,0-0.3-0.1-0.3-0.3c-0.1-0.2-0.2-0.5-0.3-0.7c0-0.1-0.1-0.2-0.2-0.1c-0.1,0-0.2,0-0.3-0.2c0-0.2-0.1-0.4-0.1-0.5
					c0-0.5,0-1-0.1-1.6c-0.1-0.8-0.4-1.6-0.8-2.3c-0.2-0.4-0.5-0.7-0.8-1c0,0-0.1-0.1-0.2-0.1c-0.4,0-0.8-0.2-1.1-0.3
					c-0.5-0.2-0.9-0.4-1.4-0.7c-0.2-0.1-0.2,0.1-0.3,0.1c-0.1,0.1,0,0.1,0,0.2c0.3,0.4,0.6,0.9,0.7,1.4c0,0.1,0,0.1,0.1,0.2
					c0.4,0.6,0.6,1.2,0.6,1.9c0,0.1,0,0.1,0,0.2c0.3,0.7,0.4,1.3,0.4,2.1c0,0.4,0,0.7,0,1.1c0.1,0.8-0.1,1.5-0.4,2.2
					c0,0.1-0.1,0.2,0,0.2c0,0.4,0,0.7-0.1,1.1c-0.1,0.3-0.2,0.6-0.5,0.8c-0.4,0.4-0.7,0.8-1,1.3c-0.3,0.4-0.6,0.8-1,1.1
					c-0.7,0.6-1.5,0.6-2.2,0c-0.6-0.4-1-1-1.4-1.5c-0.1-0.2-0.3-0.3-0.5-0.5c-0.6-0.5-0.9-1.1-0.9-1.8c0-0.2,0-0.3-0.1-0.5
					c-0.5-0.8-0.7-1.6-0.6-2.4c0-0.3,0-0.5-0.1-0.8c-0.1-0.7-0.1-1.4,0.2-2c0-0.1,0-0.1,0-0.2c0-0.7,0.1-1.3,0.4-1.9
					c0-0.1,0.1-0.2,0.1-0.3c0.1-0.5,0.2-0.9,0.5-1.4c0.1-0.2,0.1-0.3-0.1-0.4c-0.1,0-0.1,0-0.1,0c-0.4,0.3-0.9,0.6-1.3,0.8
					c-0.4,0.2-0.7,0.3-1.1,0.4c-0.1,0-0.1,0-0.2,0.1c-0.5,0.6-0.8,1.3-1,2.1c-0.1,0.4-0.2,0.9-0.2,1.3c0,0.6,0,1.1,0.1,1.7
					c0,0.2,0,0.3,0,0.5c0,0.2-0.1,0.3-0.3,0.3c-0.1,0-0.1,0-0.1,0.1c-0.1,0.3-0.1,0.6-0.3,0.8c-0.1,0.2-0.2,0.3-0.4,0.3
					c-0.1,0-0.1,0-0.1,0.1c-0.1,0.2-0.1,0.3,0,0.5c0.1,0.3,0.3,0.6,0.5,0.9c0,0.1,0.1,0.1,0.1,0.1c0,0,0.1,0.1,0,0.1
					c-0.1,0-0.1,0.1-0.2,0c-0.2-0.2-0.3-0.4-0.6-0.6c-0.2-0.2-0.4-0.1-0.6,0.1c-0.1,0.2-0.2,0.4-0.2,0.6c0,0,0,0.1,0,0.1
					c0,0.1-0.1,0.1-0.1,0.1c-0.1,0-0.1,0-0.1-0.1c-0.1-0.8,0.1-1.6,0.7-2.2c0.1-0.1,0.1-0.1,0.1-0.3c-0.1-0.1,0-0.3,0-0.4
					C7.8,50.4,7.9,50.2,8,50c0.1-0.1,0.1-0.2,0-0.4c-0.1-0.1,0-0.2,0-0.3c0-0.3,0.2-0.5,0.3-0.8c0.3-0.6,0.5-1.3,0.6-2
					C9,46.1,9,45.5,9.1,44.9c0-0.2,0.1-0.4,0.1-0.6c0.1-0.4,0.4-0.7,0.8-0.9c0.7-0.4,1.3-0.8,1.9-1.2c0.3-0.2,0.6-0.4,0.8-0.6
					c0,0,0.1-0.1,0.1-0.1c0.2-0.5,0.6-0.8,1-1.1c0.2-0.1,0.4-0.2,0.7-0.3c-0.2-0.1-0.4-0.2-0.5-0.3c-0.2-0.1-0.3-0.2-0.5-0.4
					c-0.1-0.1-0.1-0.1-0.2-0.1c-0.9,0.1-1.8,0.2-2.6,0.2c-0.2,0-0.5,0-0.7-0.1c-0.1,0-0.1,0-0.2,0.1c-0.8,0.8-1.4,1.7-1.8,2.8
					c-0.2,0.6-0.3,1.2-0.5,1.7c0,0.1-0.1,0.3-0.1,0.4C7.3,44.8,7.2,45,7,45C7,45,7,45.1,6.9,45.1c-0.2,0.2-0.4,0.4-0.6,0.6
					c-0.2,0.1-0.3,0.2-0.6,0.1c-0.1,0-0.1,0-0.2,0.1c-0.1,0.1-0.1,0.3-0.2,0.4c-0.1,0.3,0,0.7,0,1c0,0.2,0.1,0.4,0.1,0.6
					c0,0.1,0.1,0.2,0,0.2c-0.1,0-0.2-0.1-0.2-0.2c-0.1-0.3-0.1-0.5-0.3-0.8c-0.2-0.3-0.4-0.3-0.7-0.1c-0.1,0.1-0.2,0.2-0.3,0.2
					C4,47.2,4,47.3,3.9,47.4c0,0.1-0.1,0-0.2,0c-0.1,0,0-0.1,0-0.1c0.3-0.8,0.8-1.4,1.6-1.8c0.1,0,0.1-0.1,0.1-0.2
					c0-0.2,0.1-0.3,0.2-0.3c0.1-0.1,0.2-0.1,0.3-0.2c0.1-0.1,0.2-0.1,0.3-0.2c0,0,0.1-0.1,0-0.1c-0.1-0.2,0-0.3,0-0.4
					c0.1-0.1,0.2-0.3,0.3-0.4c0.4-0.5,0.6-1,0.9-1.5c0.4-0.8,0.7-1.6,1.3-2.4c0.6-0.8,1.3-1.3,2.2-1.4c0.6-0.1,1.3-0.1,1.9-0.2
					c0.2,0,0.4,0,0.6,0c0.1,0,0.1,0,0.2-0.1c0.1-0.1,0.2-0.2,0.4-0.3c0.1-0.1,0.1-0.1,0-0.1c-0.2-0.1-0.5-0.2-0.7-0.4
					c-0.1-0.1-0.3-0.2-0.3-0.4c-0.1-0.1-0.1-0.1-0.2-0.2c-0.6-0.1-1.1-0.3-1.7-0.5c-1-0.3-1.9-0.7-2.8-1.2C8.1,34.9,8,34.9,8,34.8
					c-0.3-0.2-0.5-0.5-0.6-0.8c-0.1-0.3-0.2-0.7-0.3-1c-0.1-0.5-0.4-1-0.8-1.4C6,31.3,5.7,31,5.4,30.7c-0.2-0.3-0.2-0.4,0-0.7
					c0.1-0.1,0-0.1,0-0.1c-0.1-0.1-0.3-0.1-0.4-0.2c-0.3-0.2-0.3-0.3-0.3-0.6c0-0.1,0-0.1-0.1-0.1c-0.4-0.2-0.7-0.2-1.1,0
					c-0.1,0.1-0.2,0.1-0.3,0.2c0-0.1,0-0.1,0-0.2c0.6-0.5,0.9-1.1,1.2-1.8c0-0.1,0-0.2,0.1-0.2c0.1,0,0.1,0.1,0.1,0.2
					c0,0.1,0,0.2,0,0.4c0,0.3,0.1,0.6,0.3,0.9c0.1,0.1,0.2,0.2,0.3,0.2c0.2,0,0.4,0.1,0.5,0.2C5.9,29,6,29.2,6,29.4
					c0.1,0.2,0.1,0.3,0.3,0.4c0,0,0,0,0.1,0.1c0.4,0.3,0.6,0.8,0.8,1.2C7.5,31.7,7.7,32.4,8,33c0.1,0.4,0.3,0.7,0.4,1.1
					c0,0,0,0.1,0.1,0.1c0.5-0.1,1,0.1,1.4,0.2c1,0.3,2.1,0.6,3.1,1c0.1,0,0.1,0,0.2,0c0.2-0.2,0.4-0.4,0.6-0.5
					c0.1-0.1,0.2-0.1,0.3-0.2c0,0,0,0-0.1,0c-1.1-0.4-1.8-1.1-2.2-2.2c-0.3-0.9-0.4-1.8-0.5-2.8c0-0.8,0-1.7,0.1-2.5
					c0-0.2,0-0.5,0-0.7c0-0.4,0-0.8,0.1-1.2c0,0,0-0.1,0-0.1c-0.2-0.2-0.3-0.5-0.2-0.8c0-0.2,0.1-0.4,0.2-0.5
					c0.2-0.2,0.2-0.4,0.1-0.6c-0.1-0.2-0.2-0.4-0.2-0.6c0-0.1,0-0.1-0.1-0.1c-0.2-0.2-0.3-0.5-0.3-0.8c0-0.1,0-0.2-0.1-0.2
					c-0.2-0.2-0.3-0.5-0.3-0.8c0-0.1,0-0.1-0.1-0.2c-0.2-0.2-0.3-0.4-0.3-0.7c0-0.1,0-0.1-0.1-0.2c-0.2-0.1-0.3-0.3-0.3-0.6
					c0-0.1-0.1-0.2-0.2-0.3c-0.1-0.1-0.2-0.1-0.2-0.2c-0.1-0.3-0.3-0.5-0.5-0.7c-0.1-0.2-0.2-0.4-0.4-0.6c-0.1-0.1-0.1-0.1-0.1-0.2
					C8.1,17,8,17,8,16.9c-0.2-0.1-0.3-0.3-0.4-0.5c0-0.1-0.1-0.1-0.1-0.2c-0.2-0.1-0.2-0.3-0.3-0.5c0-0.1,0-0.2,0.1-0.2
					c0.1,0,0.1,0,0.2,0c0.2,0.1,0.3,0.2,0.4,0.4c0,0.1,0.1,0.1,0.1,0.2c0.1,0.1,0.2,0.2,0.3,0.3c0.1,0.2,0.3,0.3,0.4,0.5
					c0.2,0.3,0.4,0.5,0.6,0.8c0,0.1,0.1,0.1,0.1,0.2C9.3,18,9.3,18,9.3,18c0.2,0.2,0.4,0.4,0.5,0.6c0,0,0,0.1,0.1,0.1
					c0.2,0.2,0.4,0.4,0.4,0.7c0,0.1,0,0.1,0.1,0.2c0.2,0.2,0.3,0.4,0.4,0.7c0,0.1,0,0.2,0.1,0.2c0.2,0.2,0.4,0.5,0.4,0.8
					c0,0.1,0,0.1,0.1,0.1c0.1,0.1,0.2,0.2,0.3,0.3c0.1,0.1,0.1,0.3,0.1,0.5c0,0.1,0,0.1,0.1,0.1c0.1,0,0.1,0,0.1-0.1
					c0.1-0.2,0.2-0.3,0.3-0.4c0,0,0.1-0.1,0-0.1c0-0.1-0.1-0.3-0.1-0.4c-0.2-0.9-0.4-1.7-0.4-2.7c0.1-0.6,0.3-1.2,0.7-1.8
					c0.4-0.5,0.8-0.8,1.4-1.1c0,0,0.1-0.1,0.1,0c0,0,0,0.1,0,0.1c-0.1,0.2-0.2,0.4-0.3,0.7c-0.1,0.3-0.3,0.6-0.3,0.9
					c0,0.2,0,0.4,0.1,0.5c0.1,0.2,0.3,0.3,0.5,0.3c0.1,0,0.1,0.1,0,0.1c-0.2,0.2-0.3,0.4-0.4,0.6c-0.1,0.2,0,0.4,0.1,0.6
					c0,0,0.1,0.1,0.1,0.1c0.1,0.1,0.1,0.1,0,0.2c-0.1,0.1-0.1,0.2-0.1,0.3c-0.1,0.3-0.1,0.7,0.2,0.9c0.1,0.1,0.4,0.1,0.4-0.1
					c0.1-0.2,0.1-0.4,0.2-0.6c0.1-0.2,0.1-0.4,0.3-0.5c0,0,0.1-0.1,0.1-0.1c0.1,0,0.1,0.1,0.1,0.1c0,0.1,0,0.3,0,0.4
					c0,0.2,0,0.5-0.1,0.7c0,0,0,0.1,0,0.1c0,0,0.1,0,0.1,0c0.1-0.1,0.1-0.2,0.2-0.2c0.2-0.3,0.5-0.3,0.8,0c0.1,0.1,0.2,0.2,0.4,0.3
					c0-0.1-0.1-0.2-0.1-0.3c-0.1-0.3-0.2-0.5-0.2-0.8c0-0.1,0-0.2,0.1-0.2c0.1,0,0.1,0,0.2,0.1c0.1,0.1,0.2,0.3,0.3,0.4
					c0.1,0.2,0.2,0.4,0.3,0.5c0.1,0.1,0.3,0.2,0.4,0.1c0.2-0.2,0.3-0.5,0.2-0.8c-0.1-0.1-0.1-0.3-0.2-0.4c-0.1-0.1-0.1-0.1,0-0.2
					c0.4-0.2,0.3-0.6,0.1-0.8c-0.1-0.2-0.2-0.3-0.4-0.4c-0.1-0.1-0.1-0.1,0-0.1c0.1,0,0.1-0.1,0.2-0.1c0.3-0.2,0.5-0.5,0.4-0.9
					c-0.1-0.2-0.1-0.3-0.2-0.5c-0.2-0.3-0.4-0.6-0.6-1c0,0-0.1-0.1,0-0.1c0,0,0.1,0,0.1,0c0.2,0.1,0.3,0.2,0.5,0.3
					c0.6,0.3,1.1,0.7,1.4,1.3c0.3,0.6,0.4,1.2,0.5,1.9c0,0.8-0.1,1.6-0.3,2.4c0,0.1,0,0.1,0.1,0.2c0.1,0.1,0.3,0.2,0.4,0.3
					c0.1,0.1,0.1,0.1,0.2,0c0,0,0-0.1,0-0.1c0-0.3,0.1-0.6,0.3-0.8c0,0,0-0.1,0-0.1c0-0.3,0.1-0.6,0.3-0.8c0,0,0.1-0.1,0-0.1
					c0-0.3,0.1-0.6,0.3-0.9c0,0,0-0.1,0-0.1c0-0.3,0.1-0.5,0.4-0.7c0,0,0-0.1,0.1-0.1c0.1-0.3,0.2-0.5,0.4-0.7c0,0,0.1-0.1,0.1-0.1
					c0.1-0.2,0.2-0.4,0.3-0.6c0,0,0.1-0.1,0.1-0.1c0-0.2,0.2-0.4,0.3-0.5c0,0,0.1-0.1,0.1-0.1c0.1-0.2,0.2-0.4,0.3-0.5
					c0,0,0.1-0.1,0.1-0.1c0.1-0.2,0.2-0.4,0.4-0.5C23.1,14.9,23.2,14.9,23.2,14.9z"/>
			</defs>
			<clipPath id="SVGID_10_">
				<use xlink:href="#SVGID_9_"  overflow="visible"/>
			</clipPath>
			<polygon opacity="0.89" clip-path="url(#SVGID_10_)" fill="#534741" enable-background="new    " points="11.8,42.4 22.2,44.8 
				22.2,42.4 			"/>
		</g>
	</g>
</g>
<g id="limbaro">
	<g enable-background="new    ">
		<path fill="#BC0D00" d="M31,35.4h2.2V45H31V35.4z"/>
		<path fill="#BC0D00" d="M35.8,35.2c0.3,0,0.6,0.1,0.8,0.3c0.2,0.2,0.4,0.5,0.4,0.8c0,0.3-0.1,0.6-0.3,0.8
			c-0.2,0.2-0.5,0.3-0.8,0.3c-0.3,0-0.6-0.1-0.8-0.3c-0.2-0.2-0.3-0.5-0.3-0.8c0-0.3,0.1-0.6,0.3-0.8C35.2,35.4,35.5,35.2,35.8,35.2
			z M34.7,38.4h2.2V45h-2.2V38.4z"/>
		<path fill="#BC0D00" d="M43.4,39.3c0.2-0.4,0.4-0.6,0.7-0.8s0.6-0.3,0.9-0.3c0.6,0,1,0.2,1.4,0.6c0.3,0.4,0.5,1,0.5,1.6V45h-2.2
			v-4c0-0.5-0.1-0.8-0.4-0.8c-0.2,0-0.4,0.1-0.5,0.3s-0.2,0.5-0.2,0.9V45h-2.2v-4c0-0.5-0.1-0.8-0.4-0.8c-0.2,0-0.3,0.1-0.4,0.3
			c-0.1,0.2-0.2,0.4-0.2,0.7V45h-2.1v-6.5h1.8l0.2,0.7c0.2-0.3,0.4-0.5,0.7-0.6c0.2-0.1,0.5-0.2,0.8-0.2
			C42.6,38.3,43,38.6,43.4,39.3z"/>
		<path fill="#BC0D00" d="M48.2,35.4h2.1v3.7c0.2-0.3,0.4-0.5,0.7-0.6s0.5-0.2,0.7-0.2c0.7,0,1.2,0.3,1.6,1c0.4,0.7,0.6,1.4,0.6,2.3
			c0,1-0.2,1.8-0.7,2.5c-0.5,0.7-1.1,1-1.7,1c-0.2,0-0.5-0.1-0.7-0.2c-0.2-0.1-0.4-0.3-0.6-0.5L49.6,45h-1.4V35.4z M50.4,42.9
			c0.1,0.1,0.2,0.2,0.3,0.3s0.2,0.1,0.3,0.1c0.2,0,0.4-0.1,0.6-0.4c0.2-0.3,0.2-0.7,0.2-1.2c0-0.5-0.1-0.8-0.2-1.1
			c-0.1-0.3-0.3-0.4-0.6-0.4c-0.2,0-0.4,0.1-0.5,0.3c-0.1,0.2-0.2,0.5-0.2,0.9V42.9z"/>
		<path fill="#BC0D00" d="M55.4,38.8c0.7-0.4,1.4-0.5,2.1-0.5c0.5,0,0.9,0.1,1.3,0.3c0.4,0.2,0.7,0.5,0.9,0.8s0.4,0.9,0.4,1.5v2.2
			c0,0.6,0.1,1.3,0.4,1.9h-2.2c-0.1-0.2-0.1-0.4-0.2-0.6c-0.2,0.3-0.4,0.4-0.7,0.6c-0.2,0.1-0.5,0.2-0.7,0.2c-0.5,0-1-0.2-1.4-0.6
			c-0.4-0.4-0.6-0.9-0.6-1.5c0-1.3,1.1-2.1,3.4-2.4c0-0.2-0.2-0.4-0.4-0.5c-0.2-0.1-0.5-0.2-0.8-0.2c-0.5,0-1,0.2-1.5,0.6V38.8z
			 M58.1,41.7c-0.9,0.1-1.4,0.4-1.4,1c0,0.2,0.1,0.4,0.2,0.6c0.1,0.2,0.3,0.2,0.5,0.2c0.2,0,0.4-0.1,0.5-0.3
			c0.1-0.2,0.2-0.4,0.2-0.7V41.7z"/>
		<path fill="#BC0D00" d="M63.4,39.3c0.1-0.3,0.3-0.6,0.5-0.8c0.2-0.2,0.4-0.3,0.7-0.3c0.2,0,0.3,0.1,0.5,0.2v2.1
			c-0.2-0.1-0.4-0.2-0.6-0.2c-0.3,0-0.5,0.1-0.7,0.3c-0.2,0.2-0.3,0.5-0.3,0.9V45h-2.2v-6.5h1.9L63.4,39.3z"/>
		<path fill="#BC0D00" d="M68.8,38.3c0.9,0,1.6,0.3,2.2,0.9c0.6,0.6,0.9,1.4,0.9,2.5c0,1-0.3,1.8-0.8,2.5c-0.6,0.6-1.3,1-2.3,1
			c-1,0-1.7-0.3-2.2-1c-0.5-0.6-0.8-1.4-0.8-2.4c0-1,0.3-1.9,0.8-2.5C67.1,38.6,67.9,38.3,68.8,38.3z M68.8,40
			c-0.3,0-0.5,0.1-0.6,0.4C68,40.7,68,41.1,68,41.7c0,0.6,0.1,1,0.2,1.3c0.1,0.3,0.3,0.4,0.6,0.4c0.3,0,0.5-0.1,0.6-0.4
			s0.2-0.7,0.2-1.3c0-0.6-0.1-1-0.2-1.3S69.1,40,68.8,40z"/>
	</g>
</g>
<g id="pest_control">
	<g enable-background="new    ">
		<path fill="#906E50" d="M45,46.7h1c0.6,0,1,0.2,1,0.9c0,0.6-0.5,0.9-1,0.9h-0.3v0.8H45V46.7z M46,48c0.3,0,0.4-0.1,0.4-0.4
			c0-0.2-0.1-0.3-0.4-0.3h-0.3V48H46z"/>
		<path fill="#906E50" d="M47.5,46.7h1.7v0.6h-1v0.4H49v0.6h-0.9v0.5h1v0.6h-1.7V46.7z"/>
		<path fill="#906E50" d="M49.9,48.5c0.2,0.1,0.4,0.3,0.6,0.3c0.2,0,0.3-0.1,0.3-0.2c0-0.1-0.1-0.2-0.4-0.3l-0.3-0.1
			c-0.3-0.1-0.5-0.3-0.5-0.7c0-0.4,0.4-0.8,1-0.8c0.3,0,0.6,0.1,0.9,0.3l-0.3,0.4c-0.2-0.1-0.3-0.2-0.5-0.2c-0.2,0-0.3,0.1-0.3,0.2
			c0,0.1,0.1,0.2,0.4,0.3l0.3,0.1c0.3,0.1,0.5,0.4,0.5,0.7c0,0.4-0.4,0.8-1,0.8c-0.3,0-0.7-0.1-1-0.4L49.9,48.5z"/>
		<path fill="#906E50" d="M52.4,47.3h-0.7v-0.6h2.1v0.6H53v2h-0.7V47.3z"/>
		<path fill="#906E50" d="M56.1,46.7c0.3,0,0.6,0.2,0.8,0.3l-0.4,0.4c-0.1-0.1-0.2-0.2-0.4-0.2c-0.3,0-0.6,0.3-0.6,0.8
			c0,0.5,0.2,0.8,0.6,0.8c0.2,0,0.3-0.1,0.5-0.2l0.4,0.4c-0.2,0.3-0.5,0.4-0.8,0.4c-0.7,0-1.3-0.4-1.3-1.3
			C54.8,47.2,55.4,46.7,56.1,46.7z"/>
		<path fill="#906E50" d="M57,48c0-0.9,0.5-1.3,1.2-1.3s1.2,0.5,1.2,1.3c0,0.9-0.5,1.4-1.2,1.4S57,48.9,57,48z M58.8,48
			c0-0.5-0.2-0.7-0.5-0.7c-0.3,0-0.5,0.3-0.5,0.7s0.2,0.8,0.5,0.8C58.6,48.8,58.8,48.5,58.8,48z"/>
		<path fill="#906E50" d="M59.9,46.7h0.7l0.6,1.2l0.2,0.6h0c0-0.3-0.1-0.7-0.1-1v-0.8H62v2.6h-0.7l-0.6-1.2l-0.2-0.6h0
			c0,0.3,0.1,0.7,0.1,1v0.8h-0.7V46.7z"/>
		<path fill="#906E50" d="M63.1,47.3h-0.7v-0.6h2.1v0.6h-0.7v2h-0.7V47.3z"/>
		<path fill="#906E50" d="M66.3,49.3l-0.4-0.9h-0.3v0.9h-0.7v-2.6h1c0.6,0,1,0.2,1,0.8c0,0.4-0.2,0.6-0.4,0.8l0.6,1H66.3z
			 M65.6,47.9h0.2c0.3,0,0.4-0.1,0.4-0.3s-0.1-0.3-0.4-0.3h-0.2V47.9z"/>
		<path fill="#906E50" d="M67.3,48c0-0.9,0.5-1.3,1.2-1.3s1.2,0.5,1.2,1.3c0,0.9-0.5,1.4-1.2,1.4S67.3,48.9,67.3,48z M69,48
			c0-0.5-0.2-0.7-0.5-0.7c-0.3,0-0.5,0.3-0.5,0.7s0.2,0.8,0.5,0.8C68.8,48.8,69,48.5,69,48z"/>
		<path fill="#906E50" d="M70.2,46.7h0.7v2h1v0.6h-1.7V46.7z"/>
	</g>
</g>
</svg>
