<?xml version="1.0" encoding="utf-8"?>
<!-- Generator: Adobe Illustrator 17.1.0, SVG Export Plug-In . SVG Version: 6.00 Build 0)  -->
<!DOCTYPE svg PUBLIC "-//W3C//DTD SVG 1.1//EN" "http://www.w3.org/Graphics/SVG/1.1/DTD/svg11.dtd">
<svg version="1.1" xmlns="http://www.w3.org/2000/svg" xmlns:xlink="http://www.w3.org/1999/xlink" x="0px" y="0px"
	 viewBox="0 0 80.64 145.92" enable-background="new 0 0 80.64 145.92" xml:space="preserve">
<g id="background_xA0_Image_1_">
</g>
<g id="iPhone_4_1_" opacity="0.502">
	<g id="Shape_61_xA0_Image_1_">
		<g>
			<g>
				<path fill="#59bee4" d="M6.734,72.829c0-18.156-0.001-36.312,0.001-54.468c0.001-6.422,3.998-10.426,10.411-10.427
					c14.637-0.002,29.274-0.002,43.91,0c6.433,0.001,10.45,3.993,10.45,10.388c0.001,36.432,0.001,72.864,0,109.296
					c0,6.338-4.022,10.366-10.351,10.367c-14.677,0.002-29.354,0.002-44.03,0c-6.397-0.001-10.39-4.016-10.39-10.448
					C6.733,109.302,6.734,91.066,6.734,72.829z M70.814,73.036c0-18.397-0.074-36.795,0.05-55.191
					c0.032-4.796-3.911-9.29-9.232-9.254C46.595,8.693,31.557,8.624,16.519,8.628c-5.27,0.001-9.092,3.813-9.092,9.065
					c-0.001,36.834-0.002,73.669,0,110.503c0,5.27,3.808,9.095,9.06,9.096c15.078,0.004,30.155,0.004,45.233,0
					c5.269-0.001,9.091-3.815,9.092-9.065C70.815,109.83,70.814,91.433,70.814,73.036z"/>
			</g>
		</g>
	</g>
	<g id="Shape_63_xA0_Image_1_">
		<path fill="#59bee4" d="M28.467,19.563c-0.862,0-1.563-0.701-1.563-1.563s0.702-1.563,1.563-1.563S30.03,17.138,30.03,18
			S29.329,19.563,28.467,19.563z M28.467,17.137c-0.476,0-0.863,0.387-0.863,0.863s0.387,0.863,0.863,0.863
			c0.476,0,0.863-0.387,0.863-0.863S28.943,17.137,28.467,17.137z"/>
	</g>
	<g id="Shape_64_xA0_Image_1_">
		<g>
			<g>
				<path fill="#59bee4" d="M39.688,19.663c-1.397,0-2.794,0.021-4.191-0.007c-1.226-0.024-2.068-0.697-2.044-1.568
					c0.023-0.834,0.83-1.488,1.989-1.499c2.834-0.027,5.668-0.026,8.501-0.003c1.226,0.01,2.067,0.696,2.043,1.567
					c-0.024,0.866-0.861,1.485-2.108,1.506C42.482,19.681,41.085,19.663,39.688,19.663z M39.603,18.97
					c1.476,0,2.951,0.006,4.427-0.003c0.617-0.004,1.292-0.028,1.274-0.88c-0.016-0.768-0.642-0.813-1.22-0.814
					c-2.911-0.006-5.822-0.006-8.734,0c-0.58,0.001-1.204,0.053-1.215,0.82c-0.012,0.851,0.665,0.87,1.281,0.874
					C36.812,18.977,38.208,18.971,39.603,18.97z"/>
			</g>
		</g>
	</g>
	<g id="Shape_65_xA0_Image_1_">
		<g>
			<g>
				<path fill="#ffffff" d="M67.906,72.453c0,13.676,0.001,27.351-0.001,41.027c0,2.067-0.117,2.186-2.159,2.186
					c-17.754,0.001-35.509,0.001-53.263,0c-2.037,0-2.149-0.116-2.149-2.194c-0.001-27.311-0.001-54.623,0-81.934
					c0-2.151,0.091-2.244,2.218-2.244c17.714-0.001,35.429-0.001,53.143,0c2.119,0,2.21,0.093,2.21,2.251
					C67.907,45.181,67.906,58.817,67.906,72.453z M67.213,72.54c0-13.598,0.001-27.196-0.001-40.794
					c0-1.739-0.019-1.759-1.727-1.759c-17.557-0.002-35.114-0.002-52.672,0c-1.782,0-1.787,0.006-1.787,1.819
					c-0.001,27.116-0.001,54.231,0,81.347c0,1.814,0.005,1.819,1.787,1.819c17.517,0.001,35.034,0.001,52.552,0
					c1.844,0,1.847-0.004,1.847-1.879C67.214,99.576,67.214,86.058,67.213,72.54z"/>
			</g>
		</g>
	</g>
	<g id="Shape_62_xA0_Image_1_">
		<g>
			<g>
				<path fill="#59bee4" d="M38.831,118.802c3.365,0.019,6.046,2.7,6.027,6.03c-0.019,3.385-2.828,6.235-6.208,6.17
					c-3.039-0.058-6.159-2.449-6.025-6.274C32.744,121.309,35.311,118.783,38.831,118.802z M44.172,124.973
					c0.021-3.102-2.409-5.615-5.479-5.665c-2.751-0.045-5.496,2.65-5.545,5.444c-0.053,3.018,2.491,5.569,5.563,5.58
					C41.732,130.343,44.151,127.968,44.172,124.973z"/>
			</g>
		</g>
	</g>
</g>
</svg>
