<?xml version="1.0" encoding="utf-8"?>
<!-- Generator: Adobe Illustrator 17.1.0, SVG Export Plug-In . SVG Version: 6.00 Build 0)  -->
<!DOCTYPE svg PUBLIC "-//W3C//DTD SVG 1.1//EN" "http://www.w3.org/Graphics/SVG/1.1/DTD/svg11.dtd">
<svg version="1.1" id="Layer_1" xmlns="http://www.w3.org/2000/svg" xmlns:xlink="http://www.w3.org/1999/xlink" x="0px" y="0px"
	 viewBox="2.3 21.9 67.9 28.9" enable-background="new 2.3 21.9 67.9 28.9" xml:space="preserve">
<g id="Ellipse_1">
	<g>
		<path fill="#F57F20" d="M65.1,24.5c1.4,0,2.6,1.1,2.6,2.6c0,1.4-1.1,2.6-2.6,2.6c-1.4,0-2.6-1.1-2.6-2.6S63.7,24.5,65.1,24.5
			 M65.1,21.9c-2.8,0-5.1,2.3-5.1,5.1s2.3,5.1,5.1,5.1c2.8,0,5.1-2.3,5.1-5.1S67.9,21.9,65.1,21.9L65.1,21.9z"/>
	</g>
</g>
<g enable-background="new    ">
	<path fill="#A5216E" d="M8.2,38.7c0.2,0,0.6,0,1,0s0.9,0,1.3,0.1c0.5,0.1,1,0.2,1.4,0.3c0.5,0.1,0.9,0.4,1.3,0.6s0.7,0.6,1,1
		c0.2,0.4,0.4,1,0.4,1.6c0,1-0.2,1.8-0.7,2.4c-0.4,0.6-1,1-1.6,1.3s-1.3,0.5-2,0.6s-1.4,0.1-1.9,0.1c-0.1,0-0.3,0-0.7,0
		s-0.7,0-1.1-0.1c-0.5-0.1-0.9-0.2-1.4-0.4s-1-0.5-1.4-0.8S3,44.6,2.7,44s-0.4-1.2-0.4-2h3.1c0,0.2,0,0.3,0.1,0.5s0.2,0.4,0.4,0.6
		c0.2,0.2,0.5,0.4,0.8,0.5c0.4,0.1,0.9,0.2,1.5,0.2c0.8,0,1.4,0,1.9-0.1s0.8-0.2,1-0.3s0.3-0.3,0.4-0.4c0-0.2,0.1-0.3,0.1-0.4
		c0-0.2,0-0.3-0.1-0.5s-0.2-0.3-0.4-0.4s-0.5-0.2-1-0.3S9,41.3,8.2,41.2c-0.6,0-1.2-0.1-1.8-0.3s-1.2-0.4-1.7-0.7S3.8,39.5,3.5,39
		S3,38,3,37.3s0.2-1.3,0.5-1.9c0.3-0.5,0.7-1,1.2-1.3s1.1-0.6,1.7-0.8s1.3-0.3,2-0.3c0.4,0,0.9,0,1.5,0.1s1.2,0.3,1.9,0.6
		c0.6,0.3,1.1,0.8,1.6,1.4c0.4,0.6,0.6,1.4,0.6,2.4h-3.1c0-0.5-0.2-1-0.5-1.3c-0.4-0.3-1-0.5-2-0.5c-0.7,0-1.3,0.1-1.7,0.4
		C6.2,36.6,6,37,6,37.4s0.2,0.8,0.6,0.9C7,38.6,7.6,38.7,8.2,38.7z"/>
	<path fill="#A5216E" d="M19.1,36.6v5.7c0.1,0.2,0.1,0.4,0.3,0.6c0.1,0.1,0.3,0.3,0.5,0.4c0.2,0.1,0.5,0.2,0.8,0.2h1.9v3.1h-3.1
		c-0.7-0.1-1.3-0.3-1.8-0.6c-0.4-0.3-0.8-0.6-1.2-1.1c-0.4-0.5-0.5-1.2-0.5-2.1V30.1h3.1v3.5H22v3H19.1z"/>
	<path fill="#A5216E" d="M29.8,46.8c-0.1,0-0.2,0-0.5,0s-0.7-0.1-1.1-0.2c-0.4-0.1-0.9-0.3-1.4-0.6s-0.9-0.7-1.3-1.2s-0.7-1.2-1-1.9
		c-0.3-0.8-0.4-1.7-0.4-2.9v-6.4h3.1V40c0,0.4,0,0.8,0.1,1.1c0.1,0.4,0.2,0.8,0.4,1.1c0.2,0.3,0.5,0.6,0.8,0.8s0.8,0.3,1.4,0.3
		s1-0.1,1.4-0.3c0.3-0.2,0.6-0.5,0.8-0.8c0.2-0.3,0.3-0.7,0.4-1.1c0.1-0.4,0.1-0.8,0.1-1.1v-6.4h3.1V40c0,1.1-0.1,2.1-0.4,2.9
		s-0.6,1.4-1,1.9S33.4,45.7,33,46c-0.5,0.3-0.9,0.5-1.4,0.6c-0.4,0.1-0.8,0.2-1.1,0.2S29.9,46.8,29.8,46.8z"/>
	<path fill="#A5216E" d="M37.4,40.1c0-1.1-0.1-2,0.1-2.9c0.2-0.8,0.5-1.6,1-2.1c0.5-0.6,1.1-1,1.9-1.4s1.7-0.5,2.7-0.5
		c1.1,0,2.1,0.3,3,0.8c0.4,0.2,0.7,0.5,1.1,0.8c0.4,0.3,0.7,0.7,1,1.2s0.5,1.1,0.7,1.7s0.3,1.4,0.3,2.3c0,0.9-0.1,1.7-0.2,2.3
		c-0.2,0.7-0.4,1.2-0.6,1.7c-0.3,0.5-0.6,0.9-0.9,1.2c-0.3,0.3-0.7,0.6-1,0.8c-0.8,0.5-1.8,0.7-2.8,0.7c-0.5,0-1-0.1-1.5-0.3
		c-0.4-0.2-0.9-0.4-1.3-0.8c-0.4-0.4-0.8-0.9-1.1-1.6l0.6,0.7v6.1h-3V40.1L37.4,40.1z M43.1,36.2c-0.7,0-1.2,0.1-1.6,0.3
		c-0.4,0.2-0.7,0.5-0.9,0.9s-0.3,0.8-0.4,1.2s-0.1,0.9-0.1,1.4c0,0.4,0,0.8,0.1,1.2s0.2,0.9,0.4,1.2c0.2,0.4,0.5,0.7,0.9,1
		s0.9,0.4,1.5,0.4s1.1-0.1,1.5-0.4c0.4-0.3,0.7-0.6,0.9-1s0.3-0.8,0.4-1.2C46,40.8,46,40.4,46,40s0-0.8-0.1-1.2s-0.2-0.9-0.4-1.2
		c-0.2-0.4-0.5-0.7-0.9-1C44.2,36.4,43.7,36.2,43.1,36.2z"/>
	<path fill="#A5216E" d="M53.9,29.3v5.8c0.2-0.2,0.3-0.3,0.5-0.5s0.4-0.4,0.7-0.5c0.3-0.2,0.6-0.3,0.9-0.4c0.4-0.1,0.8-0.1,1.2-0.1
		c0.5,0,1,0.1,1.6,0.3c0.5,0.2,1,0.5,1.5,0.9c0.4,0.4,0.8,0.9,1.1,1.4c0.3,0.6,0.4,1.2,0.4,2v8.4h-3.1v-7c0-0.4,0-0.8-0.1-1.1
		s-0.2-0.7-0.3-0.9c-0.2-0.3-0.4-0.5-0.7-0.6c-0.3-0.2-0.7-0.2-1.3-0.2c-0.5,0-1,0.1-1.3,0.2s-0.6,0.4-0.8,0.6
		c-0.2,0.3-0.3,0.6-0.3,0.9s-0.1,0.7-0.1,1.1l0.1,7h-3.1V29.3H53.9z"/>
</g>
<g id="i">
	<g>
		<rect x="63.6" y="33.6" fill="#F37E20" width="3.1" height="12.9"/>
	</g>
</g>
<path fill="#A5216E" d="M37.4,41"/>
</svg>
